<?xml version="1.0" standalone="yes"?>
<!DOCTYPE svg PUBLIC "-//W3C//DTD SVG 1.1//EN"
    "http://www.w3.org/Graphics/SVG/1.1/DTD/svg11.dtd">
<svg xmlns="http://www.w3.org/2000/svg" width="947" height="480" aria-label="A chart." style="overflow: hidden;"><defs id="defs"><clipPath id="_ABSTRACT_RENDERER_ID_11"><rect x="73" y="41" width="683" height="347"></rect></clipPath></defs><rect x="0" y="0" width="947" height="480" stroke="none" stroke-width="0" fill="#ffffff"></rect><g><text text-anchor="start" x="73" y="26.1" font-family="Arial" font-size="16" font-weight="bold" stroke="none" stroke-width="0" fill="#000000">Server-to-Server Python Client Performance At Different Request Sizes</text><rect x="73" y="12.5" width="683" height="16" stroke="none" stroke-width="0" fill-opacity="0" fill="#ffffff"></rect></g><g><rect x="770" y="41" width="163" height="155" stroke="none" stroke-width="0" fill-opacity="0" fill="#ffffff"></rect><g><rect x="770" y="41" width="163" height="32" stroke="none" stroke-width="0" fill-opacity="0" fill="#ffffff"></rect><g><text text-anchor="start" x="803" y="52.9" font-family="Arial" font-size="14" stroke="none" stroke-width="0" fill="#222222">HTTP Requests (no</text><text text-anchor="start" x="803" y="70.9" font-family="Arial" font-size="14" stroke="none" stroke-width="0" fill="#222222">cnxn reuse)</text></g><path d="M770,48L798,48" stroke="#9900ff" stroke-width="1" fill-opacity="1" fill="none"></path><path d="M784,42L785.3470839297388,46.14589803375031L789.7063390977709,46.14589803375031L786.1796275840161,48.708203932499366L787.5267115137549,52.85410196624969L784,50.291796067500634L780.4732884862451,52.85410196624969L781.8203724159839,48.70820393249937L778.293660902229,46.14589803375031L782.6529160702612,46.14589803375031Z" stroke="none" stroke-width="0" fill="#9900ff"></path></g><g><rect x="770" y="82" width="163" height="32" stroke="none" stroke-width="0" fill-opacity="0" fill="#ffffff"></rect><g><text text-anchor="start" x="803" y="93.9" font-family="Arial" font-size="14" stroke="none" stroke-width="0" fill="#222222">HTTP PyCurl (no</text><text text-anchor="start" x="803" y="111.9" font-family="Arial" font-size="14" stroke="none" stroke-width="0" fill="#222222">cnxn reuse)</text></g><path d="M770,89L798,89" stroke="#ff9900" stroke-width="1" fill-opacity="1" fill="none"></path><path d="M784,83L785.3470839297388,87.14589803375031L789.7063390977709,87.14589803375031L786.1796275840161,89.70820393249937L787.5267115137549,93.85410196624969L784,91.29179606750063L780.4732884862451,93.85410196624969L781.8203724159839,89.70820393249937L778.293660902229,87.14589803375031L782.6529160702612,87.14589803375031Z" stroke="none" stroke-width="0" fill="#ff9900"></path></g><g><rect x="770" y="123" width="163" height="32" stroke="none" stroke-width="0" fill-opacity="0" fill="#ffffff"></rect><g><text text-anchor="start" x="803" y="134.9" font-family="Arial" font-size="14" stroke="none" stroke-width="0" fill="#222222">HTTP Requests</text><text text-anchor="start" x="803" y="152.9" font-family="Arial" font-size="14" stroke="none" stroke-width="0" fill="#222222">(cnxn reuse)</text></g><path d="M770,130L798,130" stroke="#0000ff" stroke-width="1" fill-opacity="1" fill="none"></path><circle cx="784" cy="130" r="4.5" stroke="none" stroke-width="0" fill="#0000ff"></circle></g><g><rect x="770" y="164" width="163" height="32" stroke="none" stroke-width="0" fill-opacity="0" fill="#ffffff"></rect><g><text text-anchor="start" x="803" y="175.9" font-family="Arial" font-size="14" stroke="none" stroke-width="0" fill="#222222">HTTP PyCurl (cnxn</text><text text-anchor="start" x="803" y="193.9" font-family="Arial" font-size="14" stroke="none" stroke-width="0" fill="#222222">Reuse)</text></g><path d="M770,171L798,171" stroke="#ff0000" stroke-width="1" fill-opacity="1" fill="none"></path><circle cx="784" cy="171" r="4.5" stroke="none" stroke-width="0" fill="#ff0000"></circle></g></g><g><rect x="73" y="41" width="683" height="347" stroke="none" stroke-width="0" fill-opacity="0" fill="#ffffff"></rect><g clip-path="url(https://docs.google.com/spreadsheets/d/1jxXZb1VfytzJKM9_hZOWxKgiWv21bs1XBLgeHyckO_0/edit#_ABSTRACT_RENDERER_ID_11)"><g><rect x="651" y="41" width="1" height="347" stroke="none" stroke-width="0" fill="#cccccc"></rect><rect x="547" y="41" width="1" height="347" stroke="none" stroke-width="0" fill="#cccccc"></rect><rect x="443" y="41" width="1" height="347" stroke="none" stroke-width="0" fill="#cccccc"></rect><rect x="339" y="41" width="1" height="347" stroke="none" stroke-width="0" fill="#cccccc"></rect><rect x="235" y="41" width="1" height="347" stroke="none" stroke-width="0" fill="#cccccc"></rect><rect x="131" y="41" width="1" height="347" stroke="none" stroke-width="0" fill="#cccccc"></rect><rect x="73" y="387" width="683" height="1" stroke="none" stroke-width="0" fill="#cccccc"></rect><rect x="73" y="318" width="683" height="1" stroke="none" stroke-width="0" fill="#cccccc"></rect><rect x="73" y="249" width="683" height="1" stroke="none" stroke-width="0" fill="#cccccc"></rect><rect x="73" y="179" width="683" height="1" stroke="none" stroke-width="0" fill="#cccccc"></rect><rect x="73" y="110" width="683" height="1" stroke="none" stroke-width="0" fill="#cccccc"></rect><rect x="73" y="41" width="683" height="1" stroke="none" stroke-width="0" fill="#cccccc"></rect><rect x="73" y="375" width="683" height="1" stroke="none" stroke-width="0" fill="#ebebeb"></rect><rect x="73" y="364" width="683" height="1" stroke="none" stroke-width="0" fill="#ebebeb"></rect><rect x="73" y="352" width="683" height="1" stroke="none" stroke-width="0" fill="#ebebeb"></rect><rect x="73" y="341" width="683" height="1" stroke="none" stroke-width="0" fill="#ebebeb"></rect><rect x="73" y="329" width="683" height="1" stroke="none" stroke-width="0" fill="#ebebeb"></rect><rect x="73" y="306" width="683" height="1" stroke="none" stroke-width="0" fill="#ebebeb"></rect><rect x="73" y="295" width="683" height="1" stroke="none" stroke-width="0" fill="#ebebeb"></rect><rect x="73" y="283" width="683" height="1" stroke="none" stroke-width="0" fill="#ebebeb"></rect><rect x="73" y="272" width="683" height="1" stroke="none" stroke-width="0" fill="#ebebeb"></rect><rect x="73" y="260" width="683" height="1" stroke="none" stroke-width="0" fill="#ebebeb"></rect><rect x="73" y="237" width="683" height="1" stroke="none" stroke-width="0" fill="#ebebeb"></rect><rect x="73" y="226" width="683" height="1" stroke="none" stroke-width="0" fill="#ebebeb"></rect><rect x="73" y="214" width="683" height="1" stroke="none" stroke-width="0" fill="#ebebeb"></rect><rect x="73" y="202" width="683" height="1" stroke="none" stroke-width="0" fill="#ebebeb"></rect><rect x="73" y="191" width="683" height="1" stroke="none" stroke-width="0" fill="#ebebeb"></rect><rect x="73" y="168" width="683" height="1" stroke="none" stroke-width="0" fill="#ebebeb"></rect><rect x="73" y="156" width="683" height="1" stroke="none" stroke-width="0" fill="#ebebeb"></rect><rect x="73" y="145" width="683" height="1" stroke="none" stroke-width="0" fill="#ebebeb"></rect><rect x="73" y="133" width="683" height="1" stroke="none" stroke-width="0" fill="#ebebeb"></rect><rect x="73" y="122" width="683" height="1" stroke="none" stroke-width="0" fill="#ebebeb"></rect><rect x="73" y="99" width="683" height="1" stroke="none" stroke-width="0" fill="#ebebeb"></rect><rect x="73" y="87" width="683" height="1" stroke="none" stroke-width="0" fill="#ebebeb"></rect><rect x="73" y="76" width="683" height="1" stroke="none" stroke-width="0" fill="#ebebeb"></rect><rect x="73" y="64" width="683" height="1" stroke="none" stroke-width="0" fill="#ebebeb"></rect><rect x="73" y="53" width="683" height="1" stroke="none" stroke-width="0" fill="#ebebeb"></rect></g><g><rect x="73" y="387" width="683" height="1" stroke="none" stroke-width="0" fill="#333333"></rect></g><g><path d="M755.5,387.48820284397334C755.5,387.48820284397334,753.737779880164,386.5607888999506,752.856669820246,386.10179006325865C751.975559760328,385.64279122656677,751.0805739514349,385.16556107597023,750.1925260170293,384.72344147548C749.3044780826237,384.28132187498977,746.6403342794072,383.0369828372744,744.864238410596,382.17470344515465C743.0881425417849,381.3124240530349,737.7598549353517,378.588209228112,734.2076631977294,376.924826800368C730.6554714601073,375.261444372624,719.9988962472406,370.4283527732518,712.8945127719962,367.4639909570133C705.7901292967518,364.4996291407749,684.4769788710186,355.592953704778,670.2682119205298,350.81332084886134C656.059444970041,346.0336879929447,613.4331441185745,333.145557850106,585.015610217597,326.75906679416534C556.5980763166193,320.37257573822467,471.3454746136865,304.595578305298,414.5104068117313,298.22968223226934C357.67533900977605,291.8637861592407,73.5,278.89769847971735,73.5,278.89769847971735" stroke="#9900ff" stroke-width="1" fill-opacity="1" fill="none"></path><path d="M755.5,387.4723226208347C755.5,387.4723226208347,753.737779880164,385.1906121925488,752.856669820246,384.045456508576C751.975559760328,382.90030082460316,751.0805739514349,381.7345204112009,750.1925260170293,380.5742698713947C749.3044780826237,379.41401933158846,746.6403342794072,375.8736958777362,744.864238410596,373.5936366680827C743.0881425417849,371.3135774584291,737.7598549353517,364.57035747040754,734.2076631977294,360.194192558864C730.6554714601073,355.81802764732043,719.9988962472406,342.9520076199713,712.8945127719962,334.47910183877866C705.7901292967518,326.006196057586,684.4769788710186,298.5202052902667,670.2682119205298,284.23441390463734C656.059444970041,269.94862251900804,613.4331441185745,237.48027406729645,585.015610217597,213.29429314536802C556.5980763166193,189.10831222343958,471.3454746136865,88.35117214604111,414.5104068117313,64.94276360076532C357.67533900977605,41.534355055489584,73.5,80.74492014666134,73.5,80.74492014666134" stroke="#ff9900" stroke-width="1" fill-opacity="1" fill="none"></path><path d="M755.5,387.4799878190267C755.5,387.4799878190267,753.737779880164,385.71323576850597,752.856669820246,384.84775187846134C751.975559760328,383.98226798841665,751.0805739514349,383.103779514662,750.1925260170293,382.266921743328C749.3044780826237,381.430063971994,746.6403342794072,379.0245625027071,744.864238410596,377.38628875758667C743.0881425417849,375.7480150124662,737.7598549353517,370.64641855238,734.2076631977294,367.488269787624C730.6554714601073,364.330121022868,719.9988962472406,355.26225175781246,712.8945127719962,349.3865225504773C705.7901292967518,343.5107933431422,684.4769788710186,326.6759365384507,670.2682119205298,315.08126653674935C656.059444970041,303.48659653504797,613.4331441185745,266.5969202147202,585.015610217597,244.55573854378935C556.5980763166193,222.51455687285844,471.3454746136865,142.15966726283492,414.5104068117313,121.11261447853866C357.67533900977605,100.06556169424243,73.5,115.43422919748531,73.5,115.43422919748531" stroke="#0000ff" stroke-width="1" fill-opacity="1" fill="none"></path><path d="M755.5,387.46077409810135C755.5,387.46077409810135,753.737779880164,384.20635339489144,752.856669820246,382.568945948816C751.975559760328,380.9315385027405,751.0805739514349,379.2317072817329,750.1925260170293,377.59748992143466C749.3044780826237,375.9632725611364,746.6403342794072,371.06385433002845,744.864238410596,367.9297936526187C743.0881425417849,364.79573297520886,737.7598549353517,355.5431523294104,734.2076631977294,349.65645806133335C730.6554714601073,343.76976379325623,719.9988962472406,325.7975167608329,712.8945127719962,315.56279802697867C705.7901292967518,305.32807929312446,684.4769788710186,277.4847969354827,670.2682119205298,260.93349328943737C656.059444970041,244.38218964339202,613.4331441185745,193.25858739794643,585.015610217597,171.576459011976C556.5980763166193,149.89433062600557,471.3454746136865,101.5728063922349,414.5104068117313,90.1049869352533C357.67533900977605,78.63716747827175,73.5,115.43409760492,73.5,115.43409760492" stroke="#ff0000" stroke-width="1" fill-opacity="1" fill="none"></path></g></g><g><path d="M755.5,381.48820284397334L756.8470839297388,385.63410087772365L761.2063390977709,385.63410087772365L757.6796275840161,388.1964067764727L759.0267115137549,392.342304810223L755.5,389.77999891147397L751.9732884862451,392.342304810223L753.3203724159839,388.1964067764727L749.793660902229,385.63410087772365L754.1529160702612,385.63410087772365Z" stroke="none" stroke-width="0" fill="#9900ff"></path><path d="M752.856669820246,380.10179006325865L754.2037537499848,384.24768809700896L758.5630089180169,384.24768809700896L755.0362974042621,386.809993995758L756.3833813340009,390.95589202950833L752.856669820246,388.3935861307593L749.3299583064911,390.95589202950833L750.6770422362299,386.809993995758L747.150330722475,384.24768809700896L751.5095858905072,384.24768809700896Z" stroke="none" stroke-width="0" fill="#9900ff"></path><path d="M750.1925260170293,378.72344147548L751.5396099467681,382.8693395092303L755.8988651148002,382.8693395092303L752.3721536010454,385.4316454079794L753.7192375307842,389.5775434417297L750.1925260170293,387.0152375429806L746.6658145032744,389.5775434417297L748.0128984330132,385.4316454079794L744.4861869192584,382.8693395092303L748.8454420872905,382.8693395092303Z" stroke="none" stroke-width="0" fill="#9900ff"></path><path d="M744.864238410596,376.17470344515465L746.2113223403348,380.32060147890496L750.5705775083669,380.32060147890496L747.0438659946121,382.882907377654L748.3909499243509,387.02880541140433L744.864238410596,384.4664995126553L741.3375268968412,387.02880541140433L742.68461082658,382.882907377654L739.1578993128251,380.32060147890496L743.5171544808572,380.32060147890496Z" stroke="none" stroke-width="0" fill="#9900ff"></path><path d="M734.2076631977294,370.924826800368L735.5547471274682,375.0707248341183L739.9140022955003,375.0707248341183L736.3872907817455,377.6330307328674L737.7343747114843,381.7789287666177L734.2076631977294,379.21662286786864L730.6809516839745,381.7789287666177L732.0280356137133,377.6330307328674L728.5013240999585,375.0707248341183L732.8605792679906,375.0707248341183Z" stroke="none" stroke-width="0" fill="#9900ff"></path><path d="M712.8945127719962,361.4639909570133L714.241596701735,365.60988899076364L718.6008518697671,365.60988899076364L715.0741403560123,368.1721948895127L716.4212242857511,372.318092923263L712.8945127719962,369.75578702451395L709.3678012582413,372.318092923263L710.7148851879801,368.1721948895127L707.1881736742253,365.60988899076364L711.5474288422574,365.60988899076364Z" stroke="none" stroke-width="0" fill="#9900ff"></path><path d="M670.2682119205298,344.81332084886134L671.6152958502686,348.95921888261165L675.9745510183006,348.95921888261165L672.4478395045459,351.5215247813607L673.7949234342847,355.667422815111L670.2682119205298,353.10511691636196L666.7415004067749,355.667422815111L668.0885843365137,351.5215247813607L664.5618728227589,348.95921888261165L668.921127990791,348.95921888261165Z" stroke="none" stroke-width="0" fill="#9900ff"></path><path d="M585.015610217597,320.75906679416534L586.3626941473358,324.90496482791565L590.7219493153679,324.90496482791565L587.1952378016131,327.4672707266647L588.5423217313519,331.613168760415L585.015610217597,329.05086286166596L581.4888987038421,331.613168760415L582.8359826335809,327.4672707266647L579.309271119826,324.90496482791565L583.6685262878582,324.90496482791565Z" stroke="none" stroke-width="0" fill="#9900ff"></path><path d="M414.5104068117313,292.22968223226934L415.85749074147003,296.37558026601965L420.2167459095022,296.37558026601965L416.6900343957474,298.9378861647687L418.0371183254861,303.083784198519L414.5104068117313,300.52147829976997L410.98369529797645,303.083784198519L412.3307792277152,298.9378861647687L408.80406771396036,296.37558026601965L413.16332288199254,296.37558026601965Z" stroke="none" stroke-width="0" fill="#9900ff"></path><path d="M73.5,272.89769847971735L74.84708392973876,277.04359651346766L79.20633909777092,277.04359651346766L75.67962758401609,279.6059024122167L77.02671151375483,283.75180044596704L73.5,281.189494547218L69.97328848624517,283.75180044596704L71.32037241598391,279.6059024122167L67.79366090222908,277.04359651346766L72.15291607026124,277.04359651346766Z" stroke="none" stroke-width="0" fill="#9900ff"></path><path d="M755.5,381.4723226208347L756.8470839297388,385.618220654585L761.2063390977709,385.618220654585L757.6796275840161,388.18052655333406L759.0267115137549,392.3264245870844L755.5,389.7641186883353L751.9732884862451,392.3264245870844L753.3203724159839,388.18052655333406L749.793660902229,385.618220654585L754.1529160702612,385.618220654585Z" stroke="none" stroke-width="0" fill="#ff9900"></path><path d="M752.856669820246,378.045456508576L754.2037537499848,382.19135454232634L758.5630089180169,382.19135454232634L755.0362974042621,384.7536604410754L756.3833813340009,388.8995584748257L752.856669820246,386.33725257607665L749.3299583064911,388.8995584748257L750.6770422362299,384.7536604410754L747.150330722475,382.19135454232634L751.5095858905072,382.19135454232634Z" stroke="none" stroke-width="0" fill="#ff9900"></path><path d="M750.1925260170293,374.5742698713947L751.5396099467681,378.720167905145L755.8988651148002,378.720167905145L752.3721536010454,381.28247380389405L753.7192375307842,385.42837183764436L750.1925260170293,382.8660659388953L746.6658145032744,385.42837183764436L748.0128984330132,381.28247380389405L744.4861869192584,378.720167905145L748.8454420872905,378.720167905145Z" stroke="none" stroke-width="0" fill="#ff9900"></path><path d="M744.864238410596,367.5936366680827L746.2113223403348,371.739534701833L750.5705775083669,371.739534701833L747.0438659946121,374.30184060058207L748.3909499243509,378.4477386343324L744.864238410596,375.8854327355833L741.3375268968412,378.4477386343324L742.68461082658,374.30184060058207L739.1578993128251,371.739534701833L743.5171544808572,371.739534701833Z" stroke="none" stroke-width="0" fill="#ff9900"></path><path d="M734.2076631977294,354.194192558864L735.5547471274682,358.34009059261433L739.9140022955003,358.34009059261433L736.3872907817455,360.9023964913634L737.7343747114843,365.0482945251137L734.2076631977294,362.48598862636464L730.6809516839745,365.0482945251137L732.0280356137133,360.9023964913634L728.5013240999585,358.34009059261433L732.8605792679906,358.34009059261433Z" stroke="none" stroke-width="0" fill="#ff9900"></path><path d="M712.8945127719962,328.47910183877866L714.241596701735,332.624999872529L718.6008518697671,332.624999872529L715.0741403560123,335.18730577127803L716.4212242857511,339.33320380502835L712.8945127719962,336.7708979062793L709.3678012582413,339.33320380502835L710.7148851879801,335.18730577127803L707.1881736742253,332.624999872529L711.5474288422574,332.624999872529Z" stroke="none" stroke-width="0" fill="#ff9900"></path><path d="M670.2682119205298,278.23441390463734L671.6152958502686,282.38031193838765L675.9745510183006,282.38031193838765L672.4478395045459,284.9426178371367L673.7949234342847,289.088515870887L670.2682119205298,286.52620997213796L666.7415004067749,289.088515870887L668.0885843365137,284.9426178371367L664.5618728227589,282.38031193838765L668.921127990791,282.38031193838765Z" stroke="none" stroke-width="0" fill="#ff9900"></path><path d="M585.015610217597,207.29429314536802L586.3626941473358,211.44019117911833L590.7219493153679,211.44019117911833L587.1952378016131,214.0024970778674L588.5423217313519,218.1483951116177L585.015610217597,215.58608921286864L581.4888987038421,218.1483951116177L582.8359826335809,214.0024970778674L579.309271119826,211.44019117911833L583.6685262878582,211.44019117911833Z" stroke="none" stroke-width="0" fill="#ff9900"></path><path d="M414.5104068117313,58.94276360076532L415.85749074147003,63.08866163451563L420.2167459095022,63.08866163451563L416.6900343957474,65.65096753326469L418.0371183254861,69.796865567015L414.5104068117313,67.23455966826594L410.98369529797645,69.796865567015L412.3307792277152,65.65096753326469L408.80406771396036,63.08866163451563L413.16332288199254,63.08866163451563Z" stroke="none" stroke-width="0" fill="#ff9900"></path><path d="M73.5,74.74492014666134L74.84708392973876,78.89081818041166L79.20633909777092,78.89081818041166L75.67962758401609,81.45312407916072L77.02671151375483,85.59902211291103L73.5,83.03671621416197L69.97328848624517,85.59902211291103L71.32037241598391,81.45312407916072L67.79366090222908,78.89081818041166L72.15291607026124,78.89081818041166Z" stroke="none" stroke-width="0" fill="#ff9900"></path><circle cx="755.5" cy="387.4799878190267" r="4.5" stroke="none" stroke-width="0" fill="#0000ff"></circle><circle cx="752.856669820246" cy="384.84775187846134" r="4.5" stroke="none" stroke-width="0" fill="#0000ff"></circle><circle cx="750.1925260170293" cy="382.266921743328" r="4.5" stroke="none" stroke-width="0" fill="#0000ff"></circle><circle cx="744.864238410596" cy="377.38628875758667" r="4.5" stroke="none" stroke-width="0" fill="#0000ff"></circle><circle cx="734.2076631977294" cy="367.488269787624" r="4.5" stroke="none" stroke-width="0" fill="#0000ff"></circle><circle cx="712.8945127719962" cy="349.3865225504773" r="4.5" stroke="none" stroke-width="0" fill="#0000ff"></circle><circle cx="670.2682119205298" cy="315.08126653674935" r="4.5" stroke="none" stroke-width="0" fill="#0000ff"></circle><circle cx="585.015610217597" cy="244.55573854378935" r="4.5" stroke="none" stroke-width="0" fill="#0000ff"></circle><circle cx="414.5104068117313" cy="121.11261447853866" r="4.5" stroke="none" stroke-width="0" fill="#0000ff"></circle><circle cx="73.5" cy="115.43422919748531" r="4.5" stroke="none" stroke-width="0" fill="#0000ff"></circle><circle cx="755.5" cy="387.46077409810135" r="4.5" stroke="none" stroke-width="0" fill="#ff0000"></circle><circle cx="752.856669820246" cy="382.568945948816" r="4.5" stroke="none" stroke-width="0" fill="#ff0000"></circle><circle cx="750.1925260170293" cy="377.59748992143466" r="4.5" stroke="none" stroke-width="0" fill="#ff0000"></circle><circle cx="744.864238410596" cy="367.9297936526187" r="4.5" stroke="none" stroke-width="0" fill="#ff0000"></circle><circle cx="734.2076631977294" cy="349.65645806133335" r="4.5" stroke="none" stroke-width="0" fill="#ff0000"></circle><circle cx="712.8945127719962" cy="315.56279802697867" r="4.5" stroke="none" stroke-width="0" fill="#ff0000"></circle><circle cx="670.2682119205298" cy="260.93349328943737" r="4.5" stroke="none" stroke-width="0" fill="#ff0000"></circle><circle cx="585.015610217597" cy="171.576459011976" r="4.5" stroke="none" stroke-width="0" fill="#ff0000"></circle><circle cx="414.5104068117313" cy="90.1049869352533" r="4.5" stroke="none" stroke-width="0" fill="#ff0000"></circle><circle cx="73.5" cy="115.43409760492" r="4.5" stroke="none" stroke-width="0" fill="#ff0000"></circle></g><g><g><text text-anchor="middle" x="131.11210974456003" y="408.9" font-family="Arial" font-size="14" stroke="none" stroke-width="0" fill="#444444">120000</text></g><g><text text-anchor="middle" x="235.18022705771045" y="408.9" font-family="Arial" font-size="14" stroke="none" stroke-width="0" fill="#444444">100000</text></g><g><text text-anchor="middle" x="339.2483443708609" y="408.9" font-family="Arial" font-size="14" stroke="none" stroke-width="0" fill="#444444">80000</text></g><g><text text-anchor="middle" x="443.3164616840113" y="408.9" font-family="Arial" font-size="14" stroke="none" stroke-width="0" fill="#444444">60000</text></g><g><text text-anchor="middle" x="547.3845789971617" y="408.9" font-family="Arial" font-size="14" stroke="none" stroke-width="0" fill="#444444">40000</text></g><g><text text-anchor="middle" x="651.4526963103121" y="408.9" font-family="Arial" font-size="14" stroke="none" stroke-width="0" fill="#444444">20000</text></g><g><text text-anchor="end" x="59" y="392.4" font-family="Arial" font-size="14" stroke="none" stroke-width="0" fill="#444444">0</text></g><g><text text-anchor="end" x="59" y="323.2" font-family="Arial" font-size="14" stroke="none" stroke-width="0" fill="#444444">15</text></g><g><text text-anchor="end" x="59" y="254" font-family="Arial" font-size="14" stroke="none" stroke-width="0" fill="#444444">30</text></g><g><text text-anchor="end" x="59" y="184.8" font-family="Arial" font-size="14" stroke="none" stroke-width="0" fill="#444444">45</text></g><g><text text-anchor="end" x="59" y="115.6" font-family="Arial" font-size="14" stroke="none" stroke-width="0" fill="#444444">60</text></g><g><text text-anchor="end" x="59" y="46.4" font-family="Arial" font-size="14" stroke="none" stroke-width="0" fill="#444444">75</text></g></g></g><g><g><text text-anchor="middle" x="414.5" y="450.4" font-family="Arial" font-size="14" font-style="italic" stroke="none" stroke-width="0" fill="#222222">Response Size (B)</text><rect x="73" y="438.5" width="683" height="14" stroke="none" stroke-width="0" fill-opacity="0" fill="#ffffff"></rect></g><g><text text-anchor="middle" x="26.4" y="214.5" font-family="Arial" font-size="14" font-style="italic" transform="rotate(-90 26.4 214.5)" stroke="none" stroke-width="0" fill="#222222">Throughput (MB/s)</text><path d="M14.499999999999991,388L14.500000000000012,41L28.50000000000001,41L28.49999999999999,388Z" stroke="none" stroke-width="0" fill-opacity="0" fill="#ffffff"></path></g></g><g></g></svg>