<?xml version="1.0" standalone="yes"?>
<!DOCTYPE svg PUBLIC "-//W3C//DTD SVG 1.1//EN"
    "http://www.w3.org/Graphics/SVG/1.1/DTD/svg11.dtd">
<svg xmlns="http://www.w3.org/2000/svg" width="951" height="417" aria-label="A chart." style="overflow: hidden;"><defs id="defs"><clipPath id="_ABSTRACT_RENDERER_ID_6"><rect x="161" y="80" width="526" height="257"></rect></clipPath></defs><rect x="0" y="0" width="951" height="417" stroke="none" stroke-width="0" fill="#ffffff"></rect><g><text text-anchor="start" x="161" y="54.6" font-family="Arial" font-size="16" font-weight="bold" stroke="none" stroke-width="0" fill="#000000">Server-To-Server Python Clients (HTTP): Requests Per Second</text><rect x="161" y="41" width="526" height="16" stroke="none" stroke-width="0" fill-opacity="0" fill="#ffffff"></rect></g><g><rect x="701" y="80" width="236" height="83" stroke="none" stroke-width="0" fill-opacity="0" fill="#ffffff"></rect><g><rect x="701" y="80" width="236" height="14" stroke="none" stroke-width="0" fill-opacity="0" fill="#ffffff"></rect><g><text text-anchor="start" x="734" y="91.9" font-family="Arial" font-size="14" stroke="none" stroke-width="0" fill="#222222">HTTP Requests (no cnxn reuse)</text></g><path d="M701,87L729,87" stroke="#8e7cc3" stroke-width="1" fill-opacity="1" fill="none"></path><path d="M715,81L716.3470839297388,85.14589803375031L720.7063390977709,85.14589803375031L717.1796275840161,87.70820393249937L718.5267115137549,91.85410196624969L715,89.29179606750063L711.4732884862451,91.85410196624969L712.8203724159839,87.70820393249937L709.293660902229,85.14589803375031L713.6529160702612,85.14589803375031Z" stroke="none" stroke-width="0" fill="#8e7cc3"></path></g><g><rect x="701" y="103" width="236" height="14" stroke="none" stroke-width="0" fill-opacity="0" fill="#ffffff"></rect><g><text text-anchor="start" x="734" y="114.9" font-family="Arial" font-size="14" stroke="none" stroke-width="0" fill="#222222">HTTP PyCurl (no cnxn reuse)</text></g><path d="M701,110L729,110" stroke="#e69138" stroke-width="1" fill-opacity="1" fill="none"></path><path d="M715,104L716.3470839297388,108.14589803375031L720.7063390977709,108.14589803375031L717.1796275840161,110.70820393249937L718.5267115137549,114.85410196624969L715,112.29179606750063L711.4732884862451,114.85410196624969L712.8203724159839,110.70820393249937L709.293660902229,108.14589803375031L713.6529160702612,108.14589803375031Z" stroke="none" stroke-width="0" fill="#e69138"></path></g><g><rect x="701" y="126" width="236" height="14" stroke="none" stroke-width="0" fill-opacity="0" fill="#ffffff"></rect><g><text text-anchor="start" x="734" y="137.9" font-family="Arial" font-size="14" stroke="none" stroke-width="0" fill="#222222">HTTP Requests (cnxn reuse)</text></g><path d="M701,133L729,133" stroke="#0000ff" stroke-width="1" fill-opacity="1" fill="none"></path><circle cx="715" cy="133" r="4.5" stroke="none" stroke-width="0" fill="#0000ff"></circle></g><g><rect x="701" y="149" width="236" height="14" stroke="none" stroke-width="0" fill-opacity="0" fill="#ffffff"></rect><g><text text-anchor="start" x="734" y="160.9" font-family="Arial" font-size="14" stroke="none" stroke-width="0" fill="#222222">HTTP PyCurl (cnxn Reuse)</text></g><path d="M701,156L729,156" stroke="#ff0000" stroke-width="1" fill-opacity="1" fill="none"></path><circle cx="715" cy="156" r="4.5" stroke="none" stroke-width="0" fill="#ff0000"></circle></g></g><g><rect x="161" y="80" width="526" height="257" stroke="none" stroke-width="0" fill-opacity="0" fill="#ffffff"></rect><g clip-path="url(https://docs.google.com/spreadsheets/d/1jxXZb1VfytzJKM9_hZOWxKgiWv21bs1XBLgeHyckO_0/edit#_ABSTRACT_RENDERER_ID_6)"><g><rect x="640" y="80" width="1" height="257" stroke="none" stroke-width="0" fill="#cccccc"></rect><rect x="523" y="80" width="1" height="257" stroke="none" stroke-width="0" fill="#cccccc"></rect><rect x="407" y="80" width="1" height="257" stroke="none" stroke-width="0" fill="#cccccc"></rect><rect x="291" y="80" width="1" height="257" stroke="none" stroke-width="0" fill="#cccccc"></rect><rect x="175" y="80" width="1" height="257" stroke="none" stroke-width="0" fill="#cccccc"></rect><rect x="161" y="336" width="526" height="1" stroke="none" stroke-width="0" fill="#cccccc"></rect><rect x="161" y="272" width="526" height="1" stroke="none" stroke-width="0" fill="#cccccc"></rect><rect x="161" y="208" width="526" height="1" stroke="none" stroke-width="0" fill="#cccccc"></rect><rect x="161" y="144" width="526" height="1" stroke="none" stroke-width="0" fill="#cccccc"></rect><rect x="161" y="80" width="526" height="1" stroke="none" stroke-width="0" fill="#cccccc"></rect></g><g><rect x="161" y="336" width="526" height="1" stroke="none" stroke-width="0" fill="#333333"></rect></g><g><path d="M686.5,264.9958697088533C686.5,264.9958697088533,453.16666666666663,270.08667121627883,441.5,270.291122540544C429.8333333333333,270.49557386480916,418.1666666666666,270.2334963780196,406.5,270.7613657958933C394.83333333333326,271.2892352137671,383.1666666666666,272.93444081937423,371.49999999999994,273.45833904778664C359.83333333333326,273.9822372761991,348.16666666666663,273.28069860103466,336.49999999999994,273.904755166368C324.83333333333337,274.52881173170135,313.16666666666663,275.81810474657954,301.49999999999994,277.20267843978667C289.8333333333333,278.58725213299374,278.16666666666663,279.81952181544,266.5,282.21219732561065C254.83333333333343,284.60487283578135,243.16666666666669,288.0149072951058,231.5,291.55873150081067C219.83333333333331,295.10255570651555,208.16666666666669,299.3329789743769,196.5,303.47514255984C184.83333333333326,307.61730614530313,161.5,316.41171301358935,161.5,316.41171301358935" stroke="#8e7cc3" stroke-width="1" fill-opacity="1" fill="none"></path><path d="M686.5,168.74372651909331C686.5,168.74372651909331,453.16666666666663,172.88465806469105,441.5,172.91837988468268C429.8333333333333,172.9521017046743,418.1666666666666,172.69833158263646,406.5,172.52433175240535C394.83333333333326,172.3503319221742,383.1666666666666,171.48262388311463,371.49999999999994,171.874380903296C359.83333333333326,172.26613792347732,348.16666666666663,173.5901607278969,336.49999999999994,174.87487387349333C324.83333333333337,176.15958701908977,313.16666666666663,178.11333725331733,301.49999999999994,179.58265977687466C289.8333333333333,181.05198230043197,278.16666666666663,179.01993292503644,266.5,183.69080901483733C254.83333333333343,188.3616851046382,243.16666666666669,202.02763990828979,231.5,207.60791631568C219.83333333333331,213.18819272307022,208.16666666666669,205.1472575149831,196.5,217.17246745917865C184.83333333333326,229.1976774033742,161.5,279.75917598085334,161.5,279.75917598085334" stroke="#e69138" stroke-width="1" fill-opacity="1" fill="none"></path><path d="M686.5,215.2035092512853C686.5,215.2035092512853,453.16666666666663,210.72958016175645,441.5,210.90915252571733C429.8333333333333,211.08872488967822,418.1666666666666,211.62286394037153,406.5,212.60006624170666C394.83333333333326,213.57726854304175,383.1666666666666,215.86419985707022,371.49999999999994,216.772366333728C359.83333333333326,217.68053281038578,348.16666666666663,216.89417091085332,336.49999999999994,218.0490651016533C324.83333333333337,219.2039592924533,313.16666666666663,221.8204058804569,301.49999999999994,223.701731478528C289.8333333333333,225.5830570765991,278.16666666666663,228.16434529139553,266.5,229.33701869008001C254.83333333333343,230.50969208876444,243.16666666666669,229.30193074035378,231.5,230.73777187063467C219.83333333333331,232.17361300091554,208.16666666666669,228.71241152118398,196.5,237.9520654717653C184.83333333333326,247.19171942234664,161.5,286.17569557412264,161.5,286.17569557412264" stroke="#0000ff" stroke-width="1" fill-opacity="1" fill="none"></path><path d="M686.5,98.74659268375464C686.5,98.74659268375464,453.16666666666663,103.05987883900775,441.5,103.00176422715734C429.8333333333333,102.94364961530692,418.1666666666666,101.74132959942932,406.5,102.04519490699732C394.83333333333326,102.34906021456533,383.1666666666666,103.0822833020498,371.49999999999994,104.82495607256533C359.83333333333326,106.56762884308088,348.16666666666663,109.37219955595023,336.49999999999994,112.50123153009068C324.83333333333337,115.6302635042311,313.16666666666663,117.4808808389742,301.49999999999994,123.59914791740798C289.8333333333333,129.71741499584178,278.16666666666663,140.35376833229512,266.5,149.21083400069332C254.83333333333343,158.06789966909153,243.16666666666669,163.8631749897013,231.5,176.7415419277973C219.83333333333331,189.6199088658933,208.16666666666669,208.24201407835557,196.5,226.48103562926934C184.83333333333326,244.72005718018312,161.5,286.17567123328,161.5,286.17567123328" stroke="#ff0000" stroke-width="1" fill-opacity="1" fill="none"></path></g></g><g><path d="M686.5,258.9958697088533L687.8470839297388,263.14176774260363L692.2063390977709,263.14176774260363L688.6796275840161,265.7040736413527L690.0267115137549,269.849971675103L686.5,267.28766577635395L682.9732884862451,269.849971675103L684.3203724159839,265.7040736413527L680.793660902229,263.14176774260363L685.1529160702612,263.14176774260363Z" stroke="none" stroke-width="0" fill="#8e7cc3"></path><path d="M441.5,264.291122540544L442.84708392973874,268.4370205742943L447.2063390977709,268.4370205742943L443.6796275840161,270.99932647304337L445.02671151375483,275.1452245067937L441.5,272.5829186080446L437.97328848624517,275.1452245067937L439.3203724159839,270.99932647304337L435.7936609022291,268.4370205742943L440.15291607026126,268.4370205742943Z" stroke="none" stroke-width="0" fill="#8e7cc3"></path><path d="M406.5,264.7613657958933L407.84708392973874,268.9072638296436L412.2063390977709,268.9072638296436L408.6796275840161,271.4695697283927L410.02671151375483,275.615467762143L406.5,273.05316186339394L402.97328848624517,275.615467762143L404.3203724159839,271.4695697283927L400.7936609022291,268.9072638296436L405.15291607026126,268.9072638296436Z" stroke="none" stroke-width="0" fill="#8e7cc3"></path><path d="M371.49999999999994,267.45833904778664L372.8470839297387,271.60423708153695L377.20633909777087,271.60423708153695L373.67962758401603,274.166542980286L375.0267115137548,278.3124410140363L371.49999999999994,275.75013511528726L367.9732884862451,278.3124410140363L369.32037241598385,274.166542980286L365.793660902229,271.60423708153695L370.1529160702612,271.60423708153695Z" stroke="none" stroke-width="0" fill="#8e7cc3"></path><path d="M336.49999999999994,267.904755166368L337.8470839297387,272.0506532001183L342.20633909777087,272.0506532001183L338.67962758401603,274.61295909886735L340.0267115137548,278.75885713261766L336.49999999999994,276.1965512338686L332.9732884862451,278.75885713261766L334.32037241598385,274.61295909886735L330.793660902229,272.0506532001183L335.1529160702612,272.0506532001183Z" stroke="none" stroke-width="0" fill="#8e7cc3"></path><path d="M301.49999999999994,271.20267843978667L302.8470839297387,275.348576473537L307.20633909777087,275.348576473537L303.67962758401603,277.91088237228604L305.0267115137548,282.05678040603635L301.49999999999994,279.4944745072873L297.9732884862451,282.05678040603635L299.32037241598385,277.91088237228604L295.793660902229,275.348576473537L300.1529160702612,275.348576473537Z" stroke="none" stroke-width="0" fill="#8e7cc3"></path><path d="M266.5,276.21219732561065L267.84708392973874,280.35809535936096L272.2063390977709,280.35809535936096L268.6796275840161,282.92040125811L270.02671151375483,287.06629929186033L266.5,284.5039933931113L262.97328848624517,287.06629929186033L264.3203724159839,282.92040125811L260.7936609022291,280.35809535936096L265.15291607026126,280.35809535936096Z" stroke="none" stroke-width="0" fill="#8e7cc3"></path><path d="M231.5,285.55873150081067L232.84708392973874,289.704629534561L237.20633909777092,289.704629534561L233.6796275840161,292.26693543331004L235.02671151375483,296.41283346706035L231.5,293.8505275683113L227.97328848624517,296.41283346706035L229.3203724159839,292.26693543331004L225.79366090222908,289.704629534561L230.15291607026126,289.704629534561Z" stroke="none" stroke-width="0" fill="#8e7cc3"></path><path d="M196.5,297.47514255984L197.84708392973874,301.6210405935903L202.20633909777092,301.6210405935903L198.6796275840161,304.18334649233935L200.02671151375483,308.32924452608967L196.5,305.7669386273406L192.97328848624517,308.32924452608967L194.3203724159839,304.18334649233935L190.79366090222908,301.6210405935903L195.15291607026126,301.6210405935903Z" stroke="none" stroke-width="0" fill="#8e7cc3"></path><path d="M161.5,310.41171301358935L162.84708392973874,314.55761104733966L167.20633909777092,314.55761104733966L163.6796275840161,317.1199169460887L165.02671151375483,321.26581497983904L161.5,318.70350908109L157.97328848624517,321.26581497983904L159.3203724159839,317.1199169460887L155.79366090222908,314.55761104733966L160.15291607026126,314.55761104733966Z" stroke="none" stroke-width="0" fill="#8e7cc3"></path><path d="M686.5,162.74372651909331L687.8470839297388,166.88962455284363L692.2063390977709,166.88962455284363L688.6796275840161,169.4519304515927L690.0267115137549,173.597828485343L686.5,171.03552258659394L682.9732884862451,173.597828485343L684.3203724159839,169.4519304515927L680.793660902229,166.88962455284363L685.1529160702612,166.88962455284363Z" stroke="none" stroke-width="0" fill="#e69138"></path><path d="M441.5,166.91837988468268L442.84708392973874,171.064277918433L447.2063390977709,171.064277918433L443.6796275840161,173.62658381718205L445.02671151375483,177.77248185093237L441.5,175.2101759521833L437.97328848624517,177.77248185093237L439.3203724159839,173.62658381718205L435.7936609022291,171.064277918433L440.15291607026126,171.064277918433Z" stroke="none" stroke-width="0" fill="#e69138"></path><path d="M406.5,166.52433175240535L407.84708392973874,170.67022978615566L412.2063390977709,170.67022978615566L408.6796275840161,173.23253568490472L410.02671151375483,177.37843371865503L406.5,174.81612781990597L402.97328848624517,177.37843371865503L404.3203724159839,173.23253568490472L400.7936609022291,170.67022978615566L405.15291607026126,170.67022978615566Z" stroke="none" stroke-width="0" fill="#e69138"></path><path d="M371.49999999999994,165.874380903296L372.8470839297387,170.0202789370463L377.20633909777087,170.0202789370463L373.67962758401603,172.58258483579536L375.0267115137548,176.72848286954567L371.49999999999994,174.1661769707966L367.9732884862451,176.72848286954567L369.32037241598385,172.58258483579536L365.793660902229,170.0202789370463L370.1529160702612,170.0202789370463Z" stroke="none" stroke-width="0" fill="#e69138"></path><path d="M336.49999999999994,168.87487387349333L337.8470839297387,173.02077190724364L342.20633909777087,173.02077190724364L338.67962758401603,175.5830778059927L340.0267115137548,179.72897583974301L336.49999999999994,177.16666994099396L332.9732884862451,179.72897583974301L334.32037241598385,175.5830778059927L330.793660902229,173.02077190724364L335.1529160702612,173.02077190724364Z" stroke="none" stroke-width="0" fill="#e69138"></path><path d="M301.49999999999994,173.58265977687466L302.8470839297387,177.72855781062498L307.20633909777087,177.72855781062498L303.67962758401603,180.29086370937404L305.0267115137548,184.43676174312435L301.49999999999994,181.8744558443753L297.9732884862451,184.43676174312435L299.32037241598385,180.29086370937404L295.793660902229,177.72855781062498L300.1529160702612,177.72855781062498Z" stroke="none" stroke-width="0" fill="#e69138"></path><path d="M266.5,177.69080901483733L267.84708392973874,181.83670704858764L272.2063390977709,181.83670704858764L268.6796275840161,184.3990129473367L270.02671151375483,188.544910981087L266.5,185.98260508233795L262.97328848624517,188.544910981087L264.3203724159839,184.3990129473367L260.7936609022291,181.83670704858764L265.15291607026126,181.83670704858764Z" stroke="none" stroke-width="0" fill="#e69138"></path><path d="M231.5,201.60791631568L232.84708392973874,205.75381434943031L237.20633909777092,205.75381434943031L233.6796275840161,208.31612024817937L235.02671151375483,212.4620182819297L231.5,209.89971238318063L227.97328848624517,212.4620182819297L229.3203724159839,208.31612024817937L225.79366090222908,205.75381434943031L230.15291607026126,205.75381434943031Z" stroke="none" stroke-width="0" fill="#e69138"></path><path d="M196.5,211.17246745917865L197.84708392973874,215.31836549292896L202.20633909777092,215.31836549292896L198.6796275840161,217.88067139167802L200.02671151375483,222.02656942542833L196.5,219.46426352667928L192.97328848624517,222.02656942542833L194.3203724159839,217.88067139167802L190.79366090222908,215.31836549292896L195.15291607026126,215.31836549292896Z" stroke="none" stroke-width="0" fill="#e69138"></path><path d="M161.5,273.75917598085334L162.84708392973874,277.90507401460366L167.20633909777092,277.90507401460366L163.6796275840161,280.4673799133527L165.02671151375483,284.61327794710303L161.5,282.05097204835397L157.97328848624517,284.61327794710303L159.3203724159839,280.4673799133527L155.79366090222908,277.90507401460366L160.15291607026126,277.90507401460366Z" stroke="none" stroke-width="0" fill="#e69138"></path><circle cx="686.5" cy="215.2035092512853" r="4.5" stroke="none" stroke-width="0" fill="#0000ff"></circle><circle cx="441.5" cy="210.90915252571733" r="4.5" stroke="none" stroke-width="0" fill="#0000ff"></circle><circle cx="406.5" cy="212.60006624170666" r="4.5" stroke="none" stroke-width="0" fill="#0000ff"></circle><circle cx="371.49999999999994" cy="216.772366333728" r="4.5" stroke="none" stroke-width="0" fill="#0000ff"></circle><circle cx="336.49999999999994" cy="218.0490651016533" r="4.5" stroke="none" stroke-width="0" fill="#0000ff"></circle><circle cx="301.49999999999994" cy="223.701731478528" r="4.5" stroke="none" stroke-width="0" fill="#0000ff"></circle><circle cx="266.5" cy="229.33701869008001" r="4.5" stroke="none" stroke-width="0" fill="#0000ff"></circle><circle cx="231.5" cy="230.73777187063467" r="4.5" stroke="none" stroke-width="0" fill="#0000ff"></circle><circle cx="196.5" cy="237.9520654717653" r="4.5" stroke="none" stroke-width="0" fill="#0000ff"></circle><circle cx="161.5" cy="286.17569557412264" r="4.5" stroke="none" stroke-width="0" fill="#0000ff"></circle><circle cx="686.5" cy="98.74659268375464" r="4.5" stroke="none" stroke-width="0" fill="#ff0000"></circle><circle cx="441.5" cy="103.00176422715734" r="4.5" stroke="none" stroke-width="0" fill="#ff0000"></circle><circle cx="406.5" cy="102.04519490699732" r="4.5" stroke="none" stroke-width="0" fill="#ff0000"></circle><circle cx="371.49999999999994" cy="104.82495607256533" r="4.5" stroke="none" stroke-width="0" fill="#ff0000"></circle><circle cx="336.49999999999994" cy="112.50123153009068" r="4.5" stroke="none" stroke-width="0" fill="#ff0000"></circle><circle cx="301.49999999999994" cy="123.59914791740798" r="4.5" stroke="none" stroke-width="0" fill="#ff0000"></circle><circle cx="266.5" cy="149.21083400069332" r="4.5" stroke="none" stroke-width="0" fill="#ff0000"></circle><circle cx="231.5" cy="176.7415419277973" r="4.5" stroke="none" stroke-width="0" fill="#ff0000"></circle><circle cx="196.5" cy="226.48103562926934" r="4.5" stroke="none" stroke-width="0" fill="#ff0000"></circle><circle cx="161.5" cy="286.17567123328" r="4.5" stroke="none" stroke-width="0" fill="#ff0000"></circle></g><g><g><text text-anchor="middle" x="175.16258339471148" y="357.9" font-family="Arial" font-size="14" stroke="none" stroke-width="0" fill="#444444">100000</text></g><g><text text-anchor="middle" x="291.4300667157692" y="357.9" font-family="Arial" font-size="14" stroke="none" stroke-width="0" fill="#444444">10000</text></g><g><text text-anchor="middle" x="407.6975500368269" y="357.9" font-family="Arial" font-size="14" stroke="none" stroke-width="0" fill="#444444">1000</text></g><g><text text-anchor="middle" x="523.9650333578845" y="357.9" font-family="Arial" font-size="14" stroke="none" stroke-width="0" fill="#444444">100</text></g><g><text text-anchor="middle" x="640.2325166789423" y="357.9" font-family="Arial" font-size="14" stroke="none" stroke-width="0" fill="#444444">10</text></g><g><text text-anchor="end" x="147" y="341.4" font-family="Arial" font-size="14" stroke="none" stroke-width="0" fill="#444444">0</text></g><g><text text-anchor="end" x="147" y="277.4" font-family="Arial" font-size="14" stroke="none" stroke-width="0" fill="#444444">600</text></g><g><text text-anchor="end" x="147" y="213.4" font-family="Arial" font-size="14" stroke="none" stroke-width="0" fill="#444444">1200</text></g><g><text text-anchor="end" x="147" y="149.4" font-family="Arial" font-size="14" stroke="none" stroke-width="0" fill="#444444">1800</text></g><g><text text-anchor="end" x="147" y="85.4" font-family="Arial" font-size="14" stroke="none" stroke-width="0" fill="#444444">2400</text></g></g></g><g><g><text text-anchor="middle" x="424" y="393.4" font-family="Arial" font-size="14" font-style="italic" stroke="none" stroke-width="0" fill="#222222">Response Size (B)</text><rect x="161" y="381.5" width="526" height="14" stroke="none" stroke-width="0" fill-opacity="0" fill="#ffffff"></rect></g><g><text text-anchor="middle" x="62.9" y="208.5" font-family="Arial" font-size="14" font-style="italic" transform="rotate(-90 62.9 208.5)" stroke="none" stroke-width="0" fill="#222222">Throughput (RPS)</text><path d="M50.99999999999999,337L51.00000000000001,80L65.00000000000001,80L65,337Z" stroke="none" stroke-width="0" fill-opacity="0" fill="#ffffff"></path></g></g><g></g></svg>