<?xml version="1.0" standalone="yes"?>
<!DOCTYPE svg PUBLIC "-//W3C//DTD SVG 1.1//EN"
    "http://www.w3.org/Graphics/SVG/1.1/DTD/svg11.dtd">
<svg xmlns="http://www.w3.org/2000/svg" width="887" height="548" aria-label="A chart." style="overflow: hidden;"><defs id="defs"><clipPath id="_ABSTRACT_RENDERER_ID_522"><rect x="170" y="105" width="548" height="339"></rect></clipPath></defs><rect x="0" y="0" width="887" height="548" stroke="none" stroke-width="0" fill="#ffffff"></rect><g><text text-anchor="start" x="170" y="79.6" font-family="Arial" font-size="16" font-weight="bold" stroke="none" stroke-width="0" fill="#000000">Loopback: Python Client CPU Time Used vs. Request Size (HTTP only)</text><rect x="170" y="66" width="548" height="16" stroke="none" stroke-width="0" fill-opacity="0" fill="#ffffff"></rect></g><g><rect x="732" y="105" width="141" height="155" stroke="none" stroke-width="0" fill-opacity="0" fill="#ffffff"></rect><g><rect x="732" y="105" width="141" height="32" stroke="none" stroke-width="0" fill-opacity="0" fill="#ffffff"></rect><g><text text-anchor="start" x="765" y="116.9" font-family="Arial" font-size="14" stroke="none" stroke-width="0" fill="#222222">Requests Time</text><text text-anchor="start" x="765" y="134.9" font-family="Arial" font-size="14" stroke="none" stroke-width="0" fill="#222222">(no cnxn reuse)</text></g><path d="M732,112L760,112" stroke="#8e7cc3" stroke-width="1" fill-opacity="1" fill="none"></path><path d="M746,106L747.3470839297388,110.14589803375031L751.7063390977709,110.14589803375031L748.1796275840161,112.70820393249937L749.5267115137549,116.85410196624969L746,114.29179606750063L742.4732884862451,116.85410196624969L743.8203724159839,112.70820393249937L740.293660902229,110.14589803375031L744.6529160702612,110.14589803375031Z" stroke="none" stroke-width="0" fill="#8e7cc3"></path></g><g><rect x="732" y="146" width="141" height="32" stroke="none" stroke-width="0" fill-opacity="0" fill="#ffffff"></rect><g><text text-anchor="start" x="765" y="157.9" font-family="Arial" font-size="14" stroke="none" stroke-width="0" fill="#222222">pyCurl Time (no</text><text text-anchor="start" x="765" y="175.9" font-family="Arial" font-size="14" stroke="none" stroke-width="0" fill="#222222">cnxn reuse)</text></g><path d="M732,153L760,153" stroke="#e69138" stroke-width="1" fill-opacity="1" fill="none"></path><path d="M746,147L747.3470839297388,151.1458980337503L751.7063390977709,151.1458980337503L748.1796275840161,153.70820393249937L749.5267115137549,157.8541019662497L746,155.29179606750063L742.4732884862451,157.8541019662497L743.8203724159839,153.70820393249937L740.293660902229,151.1458980337503L744.6529160702612,151.1458980337503Z" stroke="none" stroke-width="0" fill="#e69138"></path></g><g><rect x="732" y="187" width="141" height="32" stroke="none" stroke-width="0" fill-opacity="0" fill="#ffffff"></rect><g><text text-anchor="start" x="765" y="198.9" font-family="Arial" font-size="14" stroke="none" stroke-width="0" fill="#222222">Requests Time</text><text text-anchor="start" x="765" y="216.9" font-family="Arial" font-size="14" stroke="none" stroke-width="0" fill="#222222">(cnxn reuse)</text></g><path d="M732,194L760,194" stroke="#0000ff" stroke-width="1" fill-opacity="1" fill="none"></path><circle cx="746" cy="194" r="4.5" stroke="none" stroke-width="0" fill="#0000ff"></circle></g><g><rect x="732" y="228" width="141" height="32" stroke="none" stroke-width="0" fill-opacity="0" fill="#ffffff"></rect><g><text text-anchor="start" x="765" y="239.9" font-family="Arial" font-size="14" stroke="none" stroke-width="0" fill="#222222">pyCurl Time</text><text text-anchor="start" x="765" y="257.9" font-family="Arial" font-size="14" stroke="none" stroke-width="0" fill="#222222">(cnxn reuse)</text></g><path d="M732,235L760,235" stroke="#ff0000" stroke-width="1" fill-opacity="1" fill="none"></path><circle cx="746" cy="235" r="4.5" stroke="none" stroke-width="0" fill="#ff0000"></circle></g></g><g><rect x="170" y="105" width="548" height="339" stroke="none" stroke-width="0" fill-opacity="0" fill="#ffffff"></rect><g clip-path="url(https://docs.google.com/spreadsheets/d/1jxXZb1VfytzJKM9_hZOWxKgiWv21bs1XBLgeHyckO_0/edit#_ABSTRACT_RENDERER_ID_522)"><g><rect x="669" y="105" width="1" height="339" stroke="none" stroke-width="0" fill="#cccccc"></rect><rect x="548" y="105" width="1" height="339" stroke="none" stroke-width="0" fill="#cccccc"></rect><rect x="427" y="105" width="1" height="339" stroke="none" stroke-width="0" fill="#cccccc"></rect><rect x="305" y="105" width="1" height="339" stroke="none" stroke-width="0" fill="#cccccc"></rect><rect x="184" y="105" width="1" height="339" stroke="none" stroke-width="0" fill="#cccccc"></rect><rect x="170" y="443" width="548" height="1" stroke="none" stroke-width="0" fill="#cccccc"></rect><rect x="170" y="359" width="548" height="1" stroke="none" stroke-width="0" fill="#cccccc"></rect><rect x="170" y="274" width="548" height="1" stroke="none" stroke-width="0" fill="#cccccc"></rect><rect x="170" y="190" width="548" height="1" stroke="none" stroke-width="0" fill="#cccccc"></rect><rect x="170" y="105" width="548" height="1" stroke="none" stroke-width="0" fill="#cccccc"></rect><rect x="170" y="429" width="548" height="1" stroke="none" stroke-width="0" fill="#ebebeb"></rect><rect x="170" y="415" width="548" height="1" stroke="none" stroke-width="0" fill="#ebebeb"></rect><rect x="170" y="401" width="548" height="1" stroke="none" stroke-width="0" fill="#ebebeb"></rect><rect x="170" y="387" width="548" height="1" stroke="none" stroke-width="0" fill="#ebebeb"></rect><rect x="170" y="373" width="548" height="1" stroke="none" stroke-width="0" fill="#ebebeb"></rect><rect x="170" y="344" width="548" height="1" stroke="none" stroke-width="0" fill="#ebebeb"></rect><rect x="170" y="330" width="548" height="1" stroke="none" stroke-width="0" fill="#ebebeb"></rect><rect x="170" y="316" width="548" height="1" stroke="none" stroke-width="0" fill="#ebebeb"></rect><rect x="170" y="302" width="548" height="1" stroke="none" stroke-width="0" fill="#ebebeb"></rect><rect x="170" y="288" width="548" height="1" stroke="none" stroke-width="0" fill="#ebebeb"></rect><rect x="170" y="260" width="548" height="1" stroke="none" stroke-width="0" fill="#ebebeb"></rect><rect x="170" y="246" width="548" height="1" stroke="none" stroke-width="0" fill="#ebebeb"></rect><rect x="170" y="232" width="548" height="1" stroke="none" stroke-width="0" fill="#ebebeb"></rect><rect x="170" y="218" width="548" height="1" stroke="none" stroke-width="0" fill="#ebebeb"></rect><rect x="170" y="204" width="548" height="1" stroke="none" stroke-width="0" fill="#ebebeb"></rect><rect x="170" y="175" width="548" height="1" stroke="none" stroke-width="0" fill="#ebebeb"></rect><rect x="170" y="161" width="548" height="1" stroke="none" stroke-width="0" fill="#ebebeb"></rect><rect x="170" y="147" width="548" height="1" stroke="none" stroke-width="0" fill="#ebebeb"></rect><rect x="170" y="133" width="548" height="1" stroke="none" stroke-width="0" fill="#ebebeb"></rect><rect x="170" y="119" width="548" height="1" stroke="none" stroke-width="0" fill="#ebebeb"></rect></g><g><rect x="170" y="443" width="548" height="1" stroke="none" stroke-width="0" fill="#333333"></rect></g><g><path d="M717.5,261.318C717.5,261.318,474.3888888888888,252.49780952380954,462.23333333333335,252.02300000000002C450.0777777777777,251.54819047619048,437.92222222222216,250.69916666666668,425.76666666666665,250.502C413.61111111111103,250.30483333333336,401.45555555555546,250.78366666666668,389.29999999999995,250.84C377.1444444444444,250.89633333333336,364.9888888888889,251.4596666666667,352.83333333333326,250.84C340.6777777777778,250.22033333333334,328.5222222222222,248.24866666666668,316.3666666666666,247.12200000000004C304.2111111111111,245.99533333333338,292.0555555555555,248.19233333333332,279.90000000000003,244.08C267.7444444444445,239.9676666666667,255.58888888888896,232.5035,243.43333333333334,222.448C231.27777777777771,212.39250000000004,219.12222222222226,202.64683333333338,206.96666666666664,183.747C194.81111111111102,164.84716666666668,170.5,109.04900000000004,170.5,109.04900000000004" stroke="#8e7cc3" stroke-width="1" fill-opacity="1" fill="none"></path><path d="M717.5,415.615C717.5,415.615,474.3888888888888,415.615,462.23333333333335,415.615C450.0777777777777,415.615,437.92222222222216,415.6995,425.76666666666665,415.615C413.61111111111103,415.5305,401.45555555555546,415.16433333333333,389.29999999999995,415.108C377.1444444444444,415.0516666666667,364.9888888888889,415.30516666666665,352.83333333333326,415.277C340.6777777777778,415.2488333333333,328.5222222222222,415.2488333333333,316.3666666666666,414.939C304.2111111111111,414.62916666666666,292.0555555555555,413.925,279.90000000000003,413.418C267.7444444444445,412.911,255.58888888888896,414.31933333333336,243.43333333333334,411.897C231.27777777777771,409.4746666666667,219.12222222222226,403.109,206.96666666666664,398.884C194.81111111111102,394.659,170.5,386.547,170.5,386.547" stroke="#e69138" stroke-width="1" fill-opacity="1" fill="none"></path><path d="M717.5,354.606C717.5,354.606,474.3888888888888,354.03059523809526,462.23333333333335,353.93C450.0777777777777,353.82940476190475,437.92222222222216,353.45116666666667,425.76666666666665,353.423C413.61111111111103,353.39483333333334,401.45555555555546,353.761,389.29999999999995,353.761C377.1444444444444,353.761,364.9888888888889,353.90183333333334,352.83333333333326,353.423C340.6777777777778,352.94416666666666,328.5222222222222,351.6766666666667,316.3666666666666,350.88800000000003C304.2111111111111,350.09933333333333,292.0555555555555,350.15566666666666,279.90000000000003,348.69100000000003C267.7444444444445,347.22633333333334,255.58888888888896,344.4096666666667,243.43333333333334,342.1C231.27777777777771,339.79033333333336,219.12222222222226,343.283,206.96666666666664,334.833C194.81111111111102,326.38300000000004,170.5,291.4,170.5,291.4" stroke="#0000ff" stroke-width="1" fill-opacity="1" fill="none"></path><path d="M717.5,431.163C717.5,431.163,474.3888888888888,430.99802380952383,462.23333333333335,430.994C450.0777777777777,430.98997619047617,437.92222222222216,431.0785,425.76666666666665,430.994C413.61111111111103,430.9095,401.45555555555546,430.5715,389.29999999999995,430.487C377.1444444444444,430.4025,364.9888888888889,430.487,352.83333333333326,430.487C340.6777777777778,430.487,328.5222222222222,430.8813333333333,316.3666666666666,430.487C304.2111111111111,430.0926666666667,292.0555555555555,428.93783333333334,279.90000000000003,428.121C267.7444444444445,427.3041666666667,255.58888888888896,427.783,243.43333333333334,425.586C231.27777777777771,423.389,219.12222222222226,420.79766666666666,206.96666666666664,414.939C194.81111111111102,409.08033333333333,170.5,390.434,170.5,390.434" stroke="#ff0000" stroke-width="1" fill-opacity="1" fill="none"></path></g></g><g><path d="M717.5,255.31799999999998L718.8470839297388,259.4638980337503L723.2063390977709,259.4638980337503L719.6796275840161,262.02620393249936L721.0267115137549,266.17210196624967L717.5,263.6097960675006L713.9732884862451,266.17210196624967L715.3203724159839,262.02620393249936L711.793660902229,259.4638980337503L716.1529160702612,259.4638980337503Z" stroke="none" stroke-width="0" fill="#8e7cc3"></path><path d="M462.23333333333335,246.02300000000002L463.5804172630721,250.16889803375034L467.93967243110427,250.16889803375034L464.41296091734944,252.7312039324994L465.7600448470882,256.8771019662497L462.23333333333335,254.31479606750065L458.7066218195785,256.8771019662497L460.05370574931726,252.7312039324994L456.5269942355624,250.16889803375034L460.8862494035946,250.16889803375034Z" stroke="none" stroke-width="0" fill="#8e7cc3"></path><path d="M425.76666666666665,244.502L427.1137505964054,248.64789803375032L431.4730057644376,248.64789803375032L427.94629425068274,251.21020393249938L429.2933781804215,255.3561019662497L425.76666666666665,252.79379606750064L422.2399551529118,255.3561019662497L423.58703908265056,251.21020393249938L420.06032756889573,248.64789803375032L424.4195827369279,248.64789803375032Z" stroke="none" stroke-width="0" fill="#8e7cc3"></path><path d="M389.29999999999995,244.84L390.6470839297387,248.98589803375032L395.0063390977709,248.98589803375032L391.47962758401604,251.54820393249938L392.8267115137548,255.6941019662497L389.29999999999995,253.13179606750063L385.7732884862451,255.6941019662497L387.12037241598387,251.54820393249938L383.59366090222903,248.98589803375032L387.9529160702612,248.98589803375032Z" stroke="none" stroke-width="0" fill="#8e7cc3"></path><path d="M352.83333333333326,244.84L354.180417263072,248.98589803375032L358.5396724311042,248.98589803375032L355.01296091734935,251.54820393249938L356.3600448470881,255.6941019662497L352.83333333333326,253.13179606750063L349.3066218195784,255.6941019662497L350.65370574931717,251.54820393249938L347.12699423556234,248.98589803375032L351.4862494035945,248.98589803375032Z" stroke="none" stroke-width="0" fill="#8e7cc3"></path><path d="M316.3666666666666,241.12200000000004L317.71375059640536,245.26789803375036L322.07300576443754,245.26789803375036L318.5462942506827,247.83020393249942L319.89337818042145,251.97610196624973L316.3666666666666,249.41379606750067L312.8399551529118,251.97610196624973L314.18703908265053,247.83020393249942L310.6603275688957,245.26789803375036L315.0195827369279,245.26789803375036Z" stroke="none" stroke-width="0" fill="#8e7cc3"></path><path d="M279.90000000000003,238.08L281.2470839297388,242.22589803375033L285.60633909777096,242.22589803375033L282.0796275840161,244.78820393249939L283.42671151375487,248.9341019662497L279.90000000000003,246.37179606750064L276.3732884862452,248.9341019662497L277.72037241598395,244.78820393249939L274.1936609022291,242.22589803375033L278.5529160702613,242.22589803375033Z" stroke="none" stroke-width="0" fill="#8e7cc3"></path><path d="M243.43333333333334,216.448L244.78041726307208,220.59389803375032L249.13967243110426,220.59389803375032L245.61296091734943,223.15620393249938L246.96004484708817,227.3021019662497L243.43333333333334,224.73979606750063L239.9066218195785,227.3021019662497L241.25370574931725,223.15620393249938L237.72699423556242,220.59389803375032L242.0862494035946,220.59389803375032Z" stroke="none" stroke-width="0" fill="#8e7cc3"></path><path d="M206.96666666666664,177.747L208.31375059640538,181.89289803375033L212.67300576443756,181.89289803375033L209.14629425068273,184.4552039324994L210.49337818042147,188.6011019662497L206.96666666666664,186.03879606750064L203.4399551529118,188.6011019662497L204.78703908265055,184.4552039324994L201.26032756889572,181.89289803375033L205.6195827369279,181.89289803375033Z" stroke="none" stroke-width="0" fill="#8e7cc3"></path><path d="M170.5,103.04900000000004L171.84708392973874,107.19489803375035L176.20633909777092,107.19489803375035L172.6796275840161,109.75720393249941L174.02671151375483,113.90310196624972L170.5,111.34079606750066L166.97328848624517,113.90310196624972L168.3203724159839,109.75720393249941L164.79366090222908,107.19489803375035L169.15291607026126,107.19489803375035Z" stroke="none" stroke-width="0" fill="#8e7cc3"></path><path d="M717.5,409.615L718.8470839297388,413.7608980337503L723.2063390977709,413.7608980337503L719.6796275840161,416.3232039324994L721.0267115137549,420.4691019662497L717.5,417.90679606750064L713.9732884862451,420.4691019662497L715.3203724159839,416.3232039324994L711.793660902229,413.7608980337503L716.1529160702612,413.7608980337503Z" stroke="none" stroke-width="0" fill="#e69138"></path><path d="M462.23333333333335,409.615L463.5804172630721,413.7608980337503L467.93967243110427,413.7608980337503L464.41296091734944,416.3232039324994L465.7600448470882,420.4691019662497L462.23333333333335,417.90679606750064L458.7066218195785,420.4691019662497L460.05370574931726,416.3232039324994L456.5269942355624,413.7608980337503L460.8862494035946,413.7608980337503Z" stroke="none" stroke-width="0" fill="#e69138"></path><path d="M425.76666666666665,409.615L427.1137505964054,413.7608980337503L431.4730057644376,413.7608980337503L427.94629425068274,416.3232039324994L429.2933781804215,420.4691019662497L425.76666666666665,417.90679606750064L422.2399551529118,420.4691019662497L423.58703908265056,416.3232039324994L420.06032756889573,413.7608980337503L424.4195827369279,413.7608980337503Z" stroke="none" stroke-width="0" fill="#e69138"></path><path d="M389.29999999999995,409.108L390.6470839297387,413.2538980337503L395.0063390977709,413.2538980337503L391.47962758401604,415.8162039324994L392.8267115137548,419.9621019662497L389.29999999999995,417.39979606750063L385.7732884862451,419.9621019662497L387.12037241598387,415.8162039324994L383.59366090222903,413.2538980337503L387.9529160702612,413.2538980337503Z" stroke="none" stroke-width="0" fill="#e69138"></path><path d="M352.83333333333326,409.277L354.180417263072,413.4228980337503L358.5396724311042,413.4228980337503L355.01296091734935,415.98520393249936L356.3600448470881,420.1311019662497L352.83333333333326,417.5687960675006L349.3066218195784,420.1311019662497L350.65370574931717,415.98520393249936L347.12699423556234,413.4228980337503L351.4862494035945,413.4228980337503Z" stroke="none" stroke-width="0" fill="#e69138"></path><path d="M316.3666666666666,408.939L317.71375059640536,413.08489803375033L322.07300576443754,413.08489803375033L318.5462942506827,415.6472039324994L319.89337818042145,419.7931019662497L316.3666666666666,417.23079606750065L312.8399551529118,419.7931019662497L314.18703908265053,415.6472039324994L310.6603275688957,413.08489803375033L315.0195827369279,413.08489803375033Z" stroke="none" stroke-width="0" fill="#e69138"></path><path d="M279.90000000000003,407.418L281.2470839297388,411.5638980337503L285.60633909777096,411.5638980337503L282.0796275840161,414.1262039324994L283.42671151375487,418.2721019662497L279.90000000000003,415.70979606750063L276.3732884862452,418.2721019662497L277.72037241598395,414.1262039324994L274.1936609022291,411.5638980337503L278.5529160702613,411.5638980337503Z" stroke="none" stroke-width="0" fill="#e69138"></path><path d="M243.43333333333334,405.897L244.78041726307208,410.0428980337503L249.13967243110426,410.0428980337503L245.61296091734943,412.60520393249936L246.96004484708817,416.7511019662497L243.43333333333334,414.1887960675006L239.9066218195785,416.7511019662497L241.25370574931725,412.60520393249936L237.72699423556242,410.0428980337503L242.0862494035946,410.0428980337503Z" stroke="none" stroke-width="0" fill="#e69138"></path><path d="M206.96666666666664,392.884L208.31375059640538,397.0298980337503L212.67300576443756,397.0298980337503L209.14629425068273,399.5922039324994L210.49337818042147,403.7381019662497L206.96666666666664,401.17579606750064L203.4399551529118,403.7381019662497L204.78703908265055,399.5922039324994L201.26032756889572,397.0298980337503L205.6195827369279,397.0298980337503Z" stroke="none" stroke-width="0" fill="#e69138"></path><path d="M170.5,380.547L171.84708392973874,384.69289803375034L176.20633909777092,384.69289803375034L172.6796275840161,387.2552039324994L174.02671151375483,391.4011019662497L170.5,388.83879606750065L166.97328848624517,391.4011019662497L168.3203724159839,387.2552039324994L164.79366090222908,384.69289803375034L169.15291607026126,384.69289803375034Z" stroke="none" stroke-width="0" fill="#e69138"></path><circle cx="717.5" cy="354.606" r="4.5" stroke="none" stroke-width="0" fill="#0000ff"></circle><circle cx="462.23333333333335" cy="353.93" r="4.5" stroke="none" stroke-width="0" fill="#0000ff"></circle><circle cx="425.76666666666665" cy="353.423" r="4.5" stroke="none" stroke-width="0" fill="#0000ff"></circle><circle cx="389.29999999999995" cy="353.761" r="4.5" stroke="none" stroke-width="0" fill="#0000ff"></circle><circle cx="352.83333333333326" cy="353.423" r="4.5" stroke="none" stroke-width="0" fill="#0000ff"></circle><circle cx="316.3666666666666" cy="350.88800000000003" r="4.5" stroke="none" stroke-width="0" fill="#0000ff"></circle><circle cx="279.90000000000003" cy="348.69100000000003" r="4.5" stroke="none" stroke-width="0" fill="#0000ff"></circle><circle cx="243.43333333333334" cy="342.1" r="4.5" stroke="none" stroke-width="0" fill="#0000ff"></circle><circle cx="206.96666666666664" cy="334.833" r="4.5" stroke="none" stroke-width="0" fill="#0000ff"></circle><circle cx="170.5" cy="291.4" r="4.5" stroke="none" stroke-width="0" fill="#0000ff"></circle><circle cx="717.5" cy="431.163" r="4.5" stroke="none" stroke-width="0" fill="#ff0000"></circle><circle cx="462.23333333333335" cy="430.994" r="4.5" stroke="none" stroke-width="0" fill="#ff0000"></circle><circle cx="425.76666666666665" cy="430.994" r="4.5" stroke="none" stroke-width="0" fill="#ff0000"></circle><circle cx="389.29999999999995" cy="430.487" r="4.5" stroke="none" stroke-width="0" fill="#ff0000"></circle><circle cx="352.83333333333326" cy="430.487" r="4.5" stroke="none" stroke-width="0" fill="#ff0000"></circle><circle cx="316.3666666666666" cy="430.487" r="4.5" stroke="none" stroke-width="0" fill="#ff0000"></circle><circle cx="279.90000000000003" cy="428.121" r="4.5" stroke="none" stroke-width="0" fill="#ff0000"></circle><circle cx="243.43333333333334" cy="425.586" r="4.5" stroke="none" stroke-width="0" fill="#ff0000"></circle><circle cx="206.96666666666664" cy="414.939" r="4.5" stroke="none" stroke-width="0" fill="#ff0000"></circle><circle cx="170.5" cy="390.434" r="4.5" stroke="none" stroke-width="0" fill="#ff0000"></circle></g><g><g><text text-anchor="middle" x="184.7351106988708" y="464.9" font-family="Arial" font-size="14" stroke="none" stroke-width="0" fill="#444444">100000</text></g><g><text text-anchor="middle" x="305.87475522576335" y="464.9" font-family="Arial" font-size="14" stroke="none" stroke-width="0" fill="#444444">10000</text></g><g><text text-anchor="middle" x="427.01439975265583" y="464.9" font-family="Arial" font-size="14" stroke="none" stroke-width="0" fill="#444444">1000</text></g><g><text text-anchor="middle" x="548.1540442795483" y="464.9" font-family="Arial" font-size="14" stroke="none" stroke-width="0" fill="#444444">100</text></g><g><text text-anchor="middle" x="669.2936888064409" y="464.9" font-family="Arial" font-size="14" stroke="none" stroke-width="0" fill="#444444">10</text></g><g><text text-anchor="end" x="156" y="448.4" font-family="Arial" font-size="14" stroke="none" stroke-width="0" fill="#444444">0</text></g><g><text text-anchor="end" x="156" y="363.9" font-family="Arial" font-size="14" stroke="none" stroke-width="0" fill="#444444">5</text></g><g><text text-anchor="end" x="156" y="279.4" font-family="Arial" font-size="14" stroke="none" stroke-width="0" fill="#444444">10</text></g><g><text text-anchor="end" x="156" y="194.90000000000003" font-family="Arial" font-size="14" stroke="none" stroke-width="0" fill="#444444">15</text></g><g><text text-anchor="end" x="156" y="110.4" font-family="Arial" font-size="14" stroke="none" stroke-width="0" fill="#444444">20</text></g></g></g><g><g><text text-anchor="middle" x="444" y="512.4" font-family="Arial" font-size="14" font-style="italic" stroke="none" stroke-width="0" fill="#222222">Response Size (B)</text><rect x="170" y="500.5" width="548" height="14" stroke="none" stroke-width="0" fill-opacity="0" fill="#ffffff"></rect></g><g><text text-anchor="middle" x="74.9" y="274.5" font-family="Arial" font-size="14" font-style="italic" transform="rotate(-90 74.9 274.5)" stroke="none" stroke-width="0" fill="#222222">CPU Time (s) for 10000 HTTP requests</text><path d="M62.999999999999986,444L63.00000000000001,105L77.00000000000001,105L76.99999999999999,444Z" stroke="none" stroke-width="0" fill-opacity="0" fill="#ffffff"></path></g></g><g></g></svg>