<?xml version="1.0" standalone="yes"?>
<!DOCTYPE svg PUBLIC "-//W3C//DTD SVG 1.1//EN"
    "http://www.w3.org/Graphics/SVG/1.1/DTD/svg11.dtd">
<svg xmlns="http://www.w3.org/2000/svg" width="874" height="470" aria-label="A chart." style="overflow: hidden;"><defs id="defs"><clipPath id="_ABSTRACT_RENDERER_ID_8"><rect x="149" y="90" width="467" height="290"></rect></clipPath></defs><rect x="0" y="0" width="874" height="470" stroke="none" stroke-width="0" fill="#ffffff"></rect><g><text text-anchor="start" x="149" y="64.6" font-family="Arial" font-size="16" font-weight="bold" stroke="none" stroke-width="0" fill="#000000">Server-to-Server Requests Per Second</text><rect x="149" y="51" width="467" height="16" stroke="none" stroke-width="0" fill-opacity="0" fill="#ffffff"></rect></g><g><rect x="630" y="90" width="230" height="211" stroke="none" stroke-width="0" fill-opacity="0" fill="#ffffff"></rect><g><rect x="630" y="90" width="230" height="32" stroke="none" stroke-width="0" fill-opacity="0" fill="#ffffff"></rect><g><text text-anchor="start" x="663" y="101.9" font-family="Arial" font-size="14" stroke="none" stroke-width="0" fill="#222222">HTTP Requests (no cnxn</text><text text-anchor="start" x="663" y="119.9" font-family="Arial" font-size="14" stroke="none" stroke-width="0" fill="#222222">reuse)</text></g><path d="M630,97L658,97" stroke="#3366cc" stroke-width="1" fill-opacity="1" fill="none"></path><path d="M644,92.5L648.5,97L644,101.5L639.5,97Z" stroke="none" stroke-width="0" fill="#3366cc"></path></g><g><rect x="630" y="131" width="230" height="14" stroke="none" stroke-width="0" fill-opacity="0" fill="#ffffff"></rect><g><text text-anchor="start" x="663" y="142.9" font-family="Arial" font-size="14" stroke="none" stroke-width="0" fill="#222222">HTTP PyCurl (no cnxn reuse)</text></g><path d="M630,138L658,138" stroke="#dc3912" stroke-width="1" fill-opacity="1" fill="none"></path><path d="M644,133.5L648.5,138L644,142.5L639.5,138Z" stroke="none" stroke-width="0" fill="#dc3912"></path></g><g><rect x="630" y="154" width="230" height="14" stroke="none" stroke-width="0" fill-opacity="0" fill="#ffffff"></rect><g><text text-anchor="start" x="663" y="165.9" font-family="Arial" font-size="14" stroke="none" stroke-width="0" fill="#222222">HTTP Requests (cnxn reuse)</text></g><path d="M630,161L658,161" stroke="#ff9900" stroke-width="1" fill-opacity="1" fill="none"></path><path d="M644,156.5L648.5,161L644,165.5L639.5,161Z" stroke="none" stroke-width="0" fill="#ff9900"></path></g><g><rect x="630" y="177" width="230" height="14" stroke="none" stroke-width="0" fill-opacity="0" fill="#ffffff"></rect><g><text text-anchor="start" x="663" y="188.9" font-family="Arial" font-size="14" stroke="none" stroke-width="0" fill="#222222">HTTP PyCurl (cnxn Reuse)</text></g><path d="M630,184L658,184" stroke="#109618" stroke-width="1" fill-opacity="1" fill="none"></path><path d="M644,179.5L648.5,184L644,188.5L639.5,184Z" stroke="none" stroke-width="0" fill="#109618"></path></g><g><rect x="630" y="200" width="230" height="32" stroke="none" stroke-width="0" fill-opacity="0" fill="#ffffff"></rect><g><text text-anchor="start" x="663" y="211.9" font-family="Arial" font-size="14" stroke="none" stroke-width="0" fill="#222222">HTTPS Requests (no cnxn</text><text text-anchor="start" x="663" y="229.9" font-family="Arial" font-size="14" stroke="none" stroke-width="0" fill="#222222">reuse)</text></g><path d="M630,207L658,207" stroke="#990099" stroke-width="1" fill-opacity="1" fill="none"></path><path d="M644,202.5L648.5,207L644,211.5L639.5,207Z" stroke="none" stroke-width="0" fill="#990099"></path></g><g><rect x="630" y="241" width="230" height="14" stroke="none" stroke-width="0" fill-opacity="0" fill="#ffffff"></rect><g><text text-anchor="start" x="663" y="252.9" font-family="Arial" font-size="14" stroke="none" stroke-width="0" fill="#222222">HTTPS PyCurl (no cnxn reuse)</text></g><path d="M630,248L658,248" stroke="#0099c6" stroke-width="1" fill-opacity="1" fill="none"></path><path d="M644,243.5L648.5,248L644,252.5L639.5,248Z" stroke="none" stroke-width="0" fill="#0099c6"></path></g><g><rect x="630" y="264" width="230" height="14" stroke="none" stroke-width="0" fill-opacity="0" fill="#ffffff"></rect><g><text text-anchor="start" x="663" y="275.9" font-family="Arial" font-size="14" stroke="none" stroke-width="0" fill="#222222">HTTPS Requests (cnxn reuse)</text></g><path d="M630,271L658,271" stroke="#dd4477" stroke-width="1" fill-opacity="1" fill="none"></path><path d="M644,266.5L648.5,271L644,275.5L639.5,271Z" stroke="none" stroke-width="0" fill="#dd4477"></path></g><g><rect x="630" y="287" width="230" height="14" stroke="none" stroke-width="0" fill-opacity="0" fill="#ffffff"></rect><g><text text-anchor="start" x="663" y="298.9" font-family="Arial" font-size="14" stroke="none" stroke-width="0" fill="#222222">HTTPS PyCurl (cnxn Reuse)</text></g><path d="M630,294L658,294" stroke="#66aa00" stroke-width="1" fill-opacity="1" fill="none"></path><path d="M644,289.5L648.5,294L644,298.5L639.5,294Z" stroke="none" stroke-width="0" fill="#66aa00"></path></g></g><g><rect x="149" y="90" width="467" height="290" stroke="none" stroke-width="0" fill-opacity="0" fill="#ffffff"></rect><g clip-path="url(https://docs.google.com/spreadsheets/d/1jxXZb1VfytzJKM9_hZOWxKgiWv21bs1XBLgeHyckO_0/edit#_ABSTRACT_RENDERER_ID_8)"><g><rect x="574" y="90" width="1" height="290" stroke="none" stroke-width="0" fill="#cccccc"></rect><rect x="471" y="90" width="1" height="290" stroke="none" stroke-width="0" fill="#cccccc"></rect><rect x="368" y="90" width="1" height="290" stroke="none" stroke-width="0" fill="#cccccc"></rect><rect x="264" y="90" width="1" height="290" stroke="none" stroke-width="0" fill="#cccccc"></rect><rect x="161" y="90" width="1" height="290" stroke="none" stroke-width="0" fill="#cccccc"></rect><rect x="149" y="379" width="467" height="1" stroke="none" stroke-width="0" fill="#cccccc"></rect><rect x="149" y="307" width="467" height="1" stroke="none" stroke-width="0" fill="#cccccc"></rect><rect x="149" y="235" width="467" height="1" stroke="none" stroke-width="0" fill="#cccccc"></rect><rect x="149" y="162" width="467" height="1" stroke="none" stroke-width="0" fill="#cccccc"></rect><rect x="149" y="90" width="467" height="1" stroke="none" stroke-width="0" fill="#cccccc"></rect></g><g><rect x="149" y="379" width="467" height="1" stroke="none" stroke-width="0" fill="#333333"></rect></g><g><path d="M615.5,298.7785404135102C615.5,298.7785404135102,408.38888888888886,304.5255780527523,398.0333333333333,304.756384430536C387.67777777777775,304.9871908083197,377.3222222222222,304.69132989549865,366.9666666666667,305.2872449805202C356.6111111111111,305.8831600655418,346.2555555555555,307.7404429562467,335.9,308.3318749406654C325.5444444444444,308.92330692508415,315.1888888888889,308.1313355300743,304.8333333333333,308.83583688703266C294.4777777777778,309.54033824399096,284.1222222222222,310.99582918656836,273.76666666666665,312.5588830824154C263.41111111111115,314.1219369782625,253.05555555555554,315.5130539244616,242.70000000000005,318.2141602621152C232.34444444444455,320.91526659976876,221.98888888888894,324.7648758136155,211.63333333333338,328.76552110833705C201.27777777777777,332.7661664030586,190.92222222222227,337.54191767029266,180.56666666666666,342.21803203044436C170.2111111111111,346.89414639059606,149.5,356.8222072692473,149.5,356.8222072692473" stroke="#3366cc" stroke-width="1" fill-opacity="1" fill="none"></path><path d="M615.5,190.1188943906952C615.5,190.1188943906952,408.38888888888886,194.79361789334263,398.0333333333333,194.83168666669255C387.67777777777775,194.86975544004247,377.3222222222222,194.5832727632107,366.9666666666667,194.38684326736384C356.6111111111111,194.190413771517,346.2555555555555,193.21085274304738,335.9,193.6531096916115C325.5444444444444,194.09536664017557,315.1888888888889,195.59006425922735,304.8333333333333,197.04038495874835C294.4777777777778,198.49070565826932,284.1222222222222,200.69630650862777,273.76666666666665,202.3550338887374C263.41111111111115,204.01376126884705,253.05555555555554,201.71976802865444,242.70000000000005,206.9927492394062C232.34444444444455,212.26573045015797,221.98888888888894,227.69331224021775,211.63333333333338,233.99292115324812C201.27777777777777,240.2925300662785,190.92222222222227,231.2150680540239,180.56666666666666,244.7904027175884C170.2111111111111,258.36573738115294,149.5,315.44492913463523,149.5,315.44492913463523" stroke="#dc3912" stroke-width="1" fill-opacity="1" fill="none"></path><path d="M615.5,242.56763349070883C615.5,242.56763349070883,408.38888888888886,237.51698697948288,398.0333333333333,237.7197073434856C387.67777777777775,237.9224277074883,377.3222222222222,238.5254206201851,366.9666666666667,239.62859040567665C356.6111111111111,240.73176019116823,346.2555555555555,243.31349124489572,335.9,244.33872605643512C325.5444444444444,245.36396086797455,315.1888888888889,244.4762320048305,304.8333333333333,245.7799992749133C294.4777777777778,247.0837665449961,284.1222222222222,250.03748945098454,273.76666666666665,252.16132967693198C263.41111111111115,254.28516990287943,253.05555555555554,257.1992023016145,242.70000000000005,258.52304063059813C232.34444444444455,259.8468789595817,221.98888888888894,258.48342962485253,211.63333333333338,260.10435965083366C201.27777777777777,261.7252896768148,190.92222222222227,257.81791769383665,180.56666666666666,268.24862078648505C170.2111111111111,278.67932387913356,149.5,322.6885782067244,149.5,322.6885782067244" stroke="#ff9900" stroke-width="1" fill-opacity="1" fill="none"></path><path d="M615.5,111.09869252189492C615.5,111.09869252189492,408.38888888888886,115.96798822059861,398.0333333333333,115.90238227206436C387.67777777777775,115.8367763235301,377.3222222222222,114.47946974310577,366.9666666666667,114.82250518797747C356.6111111111111,115.16554063284917,346.2555555555555,115.99328075895465,335.9,117.96059494129446C325.5444444444444,119.92790912363427,315.1888888888889,123.09400652995947,304.8333333333333,126.62639028201642C294.4777777777778,130.1587740340734,284.1222222222222,132.24794750962323,273.76666666666665,139.15489745363635C263.41111111111115,146.0618473976495,253.05555555555554,158.06929315638004,242.70000000000005,168.0680899460952C232.34444444444455,178.06688673581036,221.98888888888894,184.60920926571748,211.63333333333338,199.14767819192744C201.27777777777777,213.68614711813737,190.92222222222227,234.70875808064358,180.56666666666666,255.29890350335484C170.2111111111111,275.8890489260661,149.5,322.688550728195,149.5,322.688550728195" stroke="#109618" stroke-width="1" fill-opacity="1" fill="none"></path><path d="M615.5,361.3320473788134C615.5,361.3320473788134,408.38888888888886,361.4794876936664,398.0333333333333,361.48254490497106C387.67777777777775,361.48560211627574,377.3222222222222,361.4369934561812,366.9666666666667,361.47938852620524C356.6111111111111,361.5217835962293,346.2555555555555,361.7006361743315,335.9,361.73691532511526C325.5444444444444,361.77319447589895,315.1888888888889,361.65644239657934,304.8333333333333,361.6970634309075C294.4777777777778,361.73768446523576,284.1222222222222,361.84448291053315,273.76666666666665,361.98064153108453C263.41111111111115,362.11680015163586,253.05555555555554,362.2710426414051,242.70000000000005,362.51401515421554C232.34444444444455,362.756987667026,221.98888888888894,363.0114093316888,211.63333333333338,363.43847660794717C201.27777777777777,363.8655438842055,190.92222222222227,364.310555087282,180.56666666666666,365.07641881176556C170.2111111111111,365.8422825362492,149.5,368.03365895484853,149.5,368.03365895484853" stroke="#990099" stroke-width="1" fill-opacity="1" fill="none"></path><path d="M615.5,356.2817516576218C615.5,356.2817516576218,408.38888888888886,356.2981876454179,398.0333333333333,356.3266836926555C387.67777777777775,356.35517973989306,377.3222222222222,356.455048339028,366.9666666666667,356.49124111393326C356.6111111111111,356.5274338888385,346.2555555555555,356.54846973325147,335.9,356.5438403420869C325.5444444444444,356.5392109509224,315.1888888888889,356.44500975080865,304.8333333333333,356.46346476694595C294.4777777777778,356.4819197830833,284.1222222222222,356.6197842222552,273.76666666666665,356.65457043891087C263.41111111111115,356.68935665556654,253.05555555555554,356.585710966713,242.70000000000005,356.67218206688005C232.34444444444455,356.7586531670471,221.98888888888894,357.0249563677514,211.63333333333338,357.1733970399132C201.27777777777777,357.321837712075,190.92222222222227,357.3885149076447,180.56666666666666,357.5628260998509C170.2111111111111,357.7371372920571,149.5,358.2192641931505,149.5,358.2192641931505" stroke="#0099c6" stroke-width="1" fill-opacity="1" fill="none"></path><path d="M615.5,251.24042839895563C615.5,251.24042839895563,408.38888888888886,255.7360487751248,398.0333333333333,256.32220389232657C387.67777777777775,256.90835900952834,377.3222222222222,258.3909328775273,366.9666666666667,259.11316666791276C356.6111111111111,259.8354004582982,346.2555555555555,260.89601611526433,335.9,260.65560663463935C325.5444444444444,260.4151971540144,315.1888888888889,257.8322934940299,304.8333333333333,257.67070978416297C294.4777777777778,257.50912607429603,284.1222222222222,257.7019865345126,273.76666666666665,259.6861043754378C263.41111111111115,261.67022221636296,253.05555555555554,267.2838018065902,242.70000000000005,269.5754168297141C232.34444444444455,271.86703185283784,221.98888888888894,270.8591906461303,211.63333333333338,273.43579451418077C201.27777777777777,276.0123983822313,190.92222222222227,278.01462205206553,180.56666666666666,285.03504003801714C170.2111111111111,292.05545802396875,149.5,315.5583024298905,149.5,315.5583024298905" stroke="#dd4477" stroke-width="1" fill-opacity="1" fill="none"></path><path d="M615.5,154.0203421272305C615.5,154.0203421272305,408.38888888888886,153.77862055653148,398.0333333333333,155.6993310730701C387.67777777777775,157.62004158960877,377.3222222222222,166.61589512828786,366.9666666666667,166.98373860861065C356.6111111111111,167.35158208893347,346.2555555555555,157.5032104986826,335.9,157.90639195500697C325.5444444444444,158.30957341133134,315.1888888888889,166.173099284956,304.8333333333333,169.4028273465569C294.4777777777778,172.63255540815783,284.1222222222222,174.61860529856332,273.76666666666665,177.28476032461245C263.41111111111115,179.95091535066157,253.05555555555554,177.8903180345883,242.70000000000005,185.39975750285166C232.34444444444455,192.909196971115,221.98888888888894,213.93995951889664,211.63333333333338,222.34139713419268C201.27777777777777,230.74283474948868,190.92222222222227,219.06931155620507,180.56666666666666,235.80838319462782C170.2111111111111,252.54745483305055,149.5,322.77582696472905,149.5,322.77582696472905" stroke="#66aa00" stroke-width="1" fill-opacity="1" fill="none"></path></g></g><g><path d="M615.5,294.2785404135102L620,298.7785404135102L615.5,303.2785404135102L611,298.7785404135102Z" stroke="none" stroke-width="0" fill="#3366cc"></path><path d="M398.0333333333333,300.256384430536L402.5333333333333,304.756384430536L398.0333333333333,309.256384430536L393.5333333333333,304.756384430536Z" stroke="none" stroke-width="0" fill="#3366cc"></path><path d="M366.9666666666667,300.7872449805202L371.4666666666667,305.2872449805202L366.9666666666667,309.7872449805202L362.4666666666667,305.2872449805202Z" stroke="none" stroke-width="0" fill="#3366cc"></path><path d="M335.9,303.8318749406654L340.4,308.3318749406654L335.9,312.8318749406654L331.4,308.3318749406654Z" stroke="none" stroke-width="0" fill="#3366cc"></path><path d="M304.8333333333333,304.33583688703266L309.3333333333333,308.83583688703266L304.8333333333333,313.33583688703266L300.3333333333333,308.83583688703266Z" stroke="none" stroke-width="0" fill="#3366cc"></path><path d="M273.76666666666665,308.0588830824154L278.26666666666665,312.5588830824154L273.76666666666665,317.0588830824154L269.26666666666665,312.5588830824154Z" stroke="none" stroke-width="0" fill="#3366cc"></path><path d="M242.70000000000005,313.7141602621152L247.20000000000005,318.2141602621152L242.70000000000005,322.7141602621152L238.20000000000005,318.2141602621152Z" stroke="none" stroke-width="0" fill="#3366cc"></path><path d="M211.63333333333338,324.26552110833705L216.13333333333338,328.76552110833705L211.63333333333338,333.26552110833705L207.13333333333338,328.76552110833705Z" stroke="none" stroke-width="0" fill="#3366cc"></path><path d="M180.56666666666666,337.71803203044436L185.06666666666666,342.21803203044436L180.56666666666666,346.71803203044436L176.06666666666666,342.21803203044436Z" stroke="none" stroke-width="0" fill="#3366cc"></path><path d="M149.5,352.3222072692473L154,356.8222072692473L149.5,361.3222072692473L145,356.8222072692473Z" stroke="none" stroke-width="0" fill="#3366cc"></path><path d="M615.5,185.6188943906952L620,190.1188943906952L615.5,194.6188943906952L611,190.1188943906952Z" stroke="none" stroke-width="0" fill="#dc3912"></path><path d="M398.0333333333333,190.33168666669255L402.5333333333333,194.83168666669255L398.0333333333333,199.33168666669255L393.5333333333333,194.83168666669255Z" stroke="none" stroke-width="0" fill="#dc3912"></path><path d="M366.9666666666667,189.88684326736384L371.4666666666667,194.38684326736384L366.9666666666667,198.88684326736384L362.4666666666667,194.38684326736384Z" stroke="none" stroke-width="0" fill="#dc3912"></path><path d="M335.9,189.1531096916115L340.4,193.6531096916115L335.9,198.1531096916115L331.4,193.6531096916115Z" stroke="none" stroke-width="0" fill="#dc3912"></path><path d="M304.8333333333333,192.54038495874835L309.3333333333333,197.04038495874835L304.8333333333333,201.54038495874835L300.3333333333333,197.04038495874835Z" stroke="none" stroke-width="0" fill="#dc3912"></path><path d="M273.76666666666665,197.8550338887374L278.26666666666665,202.3550338887374L273.76666666666665,206.8550338887374L269.26666666666665,202.3550338887374Z" stroke="none" stroke-width="0" fill="#dc3912"></path><path d="M242.70000000000005,202.4927492394062L247.20000000000005,206.9927492394062L242.70000000000005,211.4927492394062L238.20000000000005,206.9927492394062Z" stroke="none" stroke-width="0" fill="#dc3912"></path><path d="M211.63333333333338,229.49292115324812L216.13333333333338,233.99292115324812L211.63333333333338,238.49292115324812L207.13333333333338,233.99292115324812Z" stroke="none" stroke-width="0" fill="#dc3912"></path><path d="M180.56666666666666,240.2904027175884L185.06666666666666,244.7904027175884L180.56666666666666,249.2904027175884L176.06666666666666,244.7904027175884Z" stroke="none" stroke-width="0" fill="#dc3912"></path><path d="M149.5,310.94492913463523L154,315.44492913463523L149.5,319.94492913463523L145,315.44492913463523Z" stroke="none" stroke-width="0" fill="#dc3912"></path><path d="M615.5,238.06763349070883L620,242.56763349070883L615.5,247.06763349070883L611,242.56763349070883Z" stroke="none" stroke-width="0" fill="#ff9900"></path><path d="M398.0333333333333,233.2197073434856L402.5333333333333,237.7197073434856L398.0333333333333,242.2197073434856L393.5333333333333,237.7197073434856Z" stroke="none" stroke-width="0" fill="#ff9900"></path><path d="M366.9666666666667,235.12859040567665L371.4666666666667,239.62859040567665L366.9666666666667,244.12859040567665L362.4666666666667,239.62859040567665Z" stroke="none" stroke-width="0" fill="#ff9900"></path><path d="M335.9,239.83872605643512L340.4,244.33872605643512L335.9,248.83872605643512L331.4,244.33872605643512Z" stroke="none" stroke-width="0" fill="#ff9900"></path><path d="M304.8333333333333,241.2799992749133L309.3333333333333,245.7799992749133L304.8333333333333,250.2799992749133L300.3333333333333,245.7799992749133Z" stroke="none" stroke-width="0" fill="#ff9900"></path><path d="M273.76666666666665,247.66132967693198L278.26666666666665,252.16132967693198L273.76666666666665,256.661329676932L269.26666666666665,252.16132967693198Z" stroke="none" stroke-width="0" fill="#ff9900"></path><path d="M242.70000000000005,254.02304063059813L247.20000000000005,258.52304063059813L242.70000000000005,263.02304063059813L238.20000000000005,258.52304063059813Z" stroke="none" stroke-width="0" fill="#ff9900"></path><path d="M211.63333333333338,255.60435965083366L216.13333333333338,260.10435965083366L211.63333333333338,264.60435965083366L207.13333333333338,260.10435965083366Z" stroke="none" stroke-width="0" fill="#ff9900"></path><path d="M180.56666666666666,263.74862078648505L185.06666666666666,268.24862078648505L180.56666666666666,272.74862078648505L176.06666666666666,268.24862078648505Z" stroke="none" stroke-width="0" fill="#ff9900"></path><path d="M149.5,318.1885782067244L154,322.6885782067244L149.5,327.1885782067244L145,322.6885782067244Z" stroke="none" stroke-width="0" fill="#ff9900"></path><path d="M615.5,106.59869252189492L620,111.09869252189492L615.5,115.59869252189492L611,111.09869252189492Z" stroke="none" stroke-width="0" fill="#109618"></path><path d="M398.0333333333333,111.40238227206436L402.5333333333333,115.90238227206436L398.0333333333333,120.40238227206436L393.5333333333333,115.90238227206436Z" stroke="none" stroke-width="0" fill="#109618"></path><path d="M366.9666666666667,110.32250518797747L371.4666666666667,114.82250518797747L366.9666666666667,119.32250518797747L362.4666666666667,114.82250518797747Z" stroke="none" stroke-width="0" fill="#109618"></path><path d="M335.9,113.46059494129446L340.4,117.96059494129446L335.9,122.46059494129446L331.4,117.96059494129446Z" stroke="none" stroke-width="0" fill="#109618"></path><path d="M304.8333333333333,122.12639028201642L309.3333333333333,126.62639028201642L304.8333333333333,131.12639028201642L300.3333333333333,126.62639028201642Z" stroke="none" stroke-width="0" fill="#109618"></path><path d="M273.76666666666665,134.65489745363635L278.26666666666665,139.15489745363635L273.76666666666665,143.65489745363635L269.26666666666665,139.15489745363635Z" stroke="none" stroke-width="0" fill="#109618"></path><path d="M242.70000000000005,163.5680899460952L247.20000000000005,168.0680899460952L242.70000000000005,172.5680899460952L238.20000000000005,168.0680899460952Z" stroke="none" stroke-width="0" fill="#109618"></path><path d="M211.63333333333338,194.64767819192744L216.13333333333338,199.14767819192744L211.63333333333338,203.64767819192744L207.13333333333338,199.14767819192744Z" stroke="none" stroke-width="0" fill="#109618"></path><path d="M180.56666666666666,250.79890350335484L185.06666666666666,255.29890350335484L180.56666666666666,259.79890350335484L176.06666666666666,255.29890350335484Z" stroke="none" stroke-width="0" fill="#109618"></path><path d="M149.5,318.188550728195L154,322.688550728195L149.5,327.188550728195L145,322.688550728195Z" stroke="none" stroke-width="0" fill="#109618"></path><path d="M615.5,356.8320473788134L620,361.3320473788134L615.5,365.8320473788134L611,361.3320473788134Z" stroke="none" stroke-width="0" fill="#990099"></path><path d="M398.0333333333333,356.98254490497106L402.5333333333333,361.48254490497106L398.0333333333333,365.98254490497106L393.5333333333333,361.48254490497106Z" stroke="none" stroke-width="0" fill="#990099"></path><path d="M366.9666666666667,356.97938852620524L371.4666666666667,361.47938852620524L366.9666666666667,365.97938852620524L362.4666666666667,361.47938852620524Z" stroke="none" stroke-width="0" fill="#990099"></path><path d="M335.9,357.23691532511526L340.4,361.73691532511526L335.9,366.23691532511526L331.4,361.73691532511526Z" stroke="none" stroke-width="0" fill="#990099"></path><path d="M304.8333333333333,357.1970634309075L309.3333333333333,361.6970634309075L304.8333333333333,366.1970634309075L300.3333333333333,361.6970634309075Z" stroke="none" stroke-width="0" fill="#990099"></path><path d="M273.76666666666665,357.48064153108453L278.26666666666665,361.98064153108453L273.76666666666665,366.48064153108453L269.26666666666665,361.98064153108453Z" stroke="none" stroke-width="0" fill="#990099"></path><path d="M242.70000000000005,358.01401515421554L247.20000000000005,362.51401515421554L242.70000000000005,367.01401515421554L238.20000000000005,362.51401515421554Z" stroke="none" stroke-width="0" fill="#990099"></path><path d="M211.63333333333338,358.93847660794717L216.13333333333338,363.43847660794717L211.63333333333338,367.93847660794717L207.13333333333338,363.43847660794717Z" stroke="none" stroke-width="0" fill="#990099"></path><path d="M180.56666666666666,360.57641881176556L185.06666666666666,365.07641881176556L180.56666666666666,369.57641881176556L176.06666666666666,365.07641881176556Z" stroke="none" stroke-width="0" fill="#990099"></path><path d="M149.5,363.53365895484853L154,368.03365895484853L149.5,372.53365895484853L145,368.03365895484853Z" stroke="none" stroke-width="0" fill="#990099"></path><path d="M615.5,351.7817516576218L620,356.2817516576218L615.5,360.7817516576218L611,356.2817516576218Z" stroke="none" stroke-width="0" fill="#0099c6"></path><path d="M398.0333333333333,351.8266836926555L402.5333333333333,356.3266836926555L398.0333333333333,360.8266836926555L393.5333333333333,356.3266836926555Z" stroke="none" stroke-width="0" fill="#0099c6"></path><path d="M366.9666666666667,351.99124111393326L371.4666666666667,356.49124111393326L366.9666666666667,360.99124111393326L362.4666666666667,356.49124111393326Z" stroke="none" stroke-width="0" fill="#0099c6"></path><path d="M335.9,352.0438403420869L340.4,356.5438403420869L335.9,361.0438403420869L331.4,356.5438403420869Z" stroke="none" stroke-width="0" fill="#0099c6"></path><path d="M304.8333333333333,351.96346476694595L309.3333333333333,356.46346476694595L304.8333333333333,360.96346476694595L300.3333333333333,356.46346476694595Z" stroke="none" stroke-width="0" fill="#0099c6"></path><path d="M273.76666666666665,352.15457043891087L278.26666666666665,356.65457043891087L273.76666666666665,361.15457043891087L269.26666666666665,356.65457043891087Z" stroke="none" stroke-width="0" fill="#0099c6"></path><path d="M242.70000000000005,352.17218206688005L247.20000000000005,356.67218206688005L242.70000000000005,361.17218206688005L238.20000000000005,356.67218206688005Z" stroke="none" stroke-width="0" fill="#0099c6"></path><path d="M211.63333333333338,352.6733970399132L216.13333333333338,357.1733970399132L211.63333333333338,361.6733970399132L207.13333333333338,357.1733970399132Z" stroke="none" stroke-width="0" fill="#0099c6"></path><path d="M180.56666666666666,353.0628260998509L185.06666666666666,357.5628260998509L180.56666666666666,362.0628260998509L176.06666666666666,357.5628260998509Z" stroke="none" stroke-width="0" fill="#0099c6"></path><path d="M149.5,353.7192641931505L154,358.2192641931505L149.5,362.7192641931505L145,358.2192641931505Z" stroke="none" stroke-width="0" fill="#0099c6"></path><path d="M615.5,246.74042839895563L620,251.24042839895563L615.5,255.74042839895563L611,251.24042839895563Z" stroke="none" stroke-width="0" fill="#dd4477"></path><path d="M398.0333333333333,251.82220389232657L402.5333333333333,256.32220389232657L398.0333333333333,260.82220389232657L393.5333333333333,256.32220389232657Z" stroke="none" stroke-width="0" fill="#dd4477"></path><path d="M366.9666666666667,254.61316666791276L371.4666666666667,259.11316666791276L366.9666666666667,263.61316666791276L362.4666666666667,259.11316666791276Z" stroke="none" stroke-width="0" fill="#dd4477"></path><path d="M335.9,256.15560663463935L340.4,260.65560663463935L335.9,265.15560663463935L331.4,260.65560663463935Z" stroke="none" stroke-width="0" fill="#dd4477"></path><path d="M304.8333333333333,253.17070978416297L309.3333333333333,257.67070978416297L304.8333333333333,262.17070978416297L300.3333333333333,257.67070978416297Z" stroke="none" stroke-width="0" fill="#dd4477"></path><path d="M273.76666666666665,255.18610437543782L278.26666666666665,259.6861043754378L273.76666666666665,264.1861043754378L269.26666666666665,259.6861043754378Z" stroke="none" stroke-width="0" fill="#dd4477"></path><path d="M242.70000000000005,265.0754168297141L247.20000000000005,269.5754168297141L242.70000000000005,274.0754168297141L238.20000000000005,269.5754168297141Z" stroke="none" stroke-width="0" fill="#dd4477"></path><path d="M211.63333333333338,268.93579451418077L216.13333333333338,273.43579451418077L211.63333333333338,277.93579451418077L207.13333333333338,273.43579451418077Z" stroke="none" stroke-width="0" fill="#dd4477"></path><path d="M180.56666666666666,280.53504003801714L185.06666666666666,285.03504003801714L180.56666666666666,289.53504003801714L176.06666666666666,285.03504003801714Z" stroke="none" stroke-width="0" fill="#dd4477"></path><path d="M149.5,311.0583024298905L154,315.5583024298905L149.5,320.0583024298905L145,315.5583024298905Z" stroke="none" stroke-width="0" fill="#dd4477"></path><path d="M615.5,149.5203421272305L620,154.0203421272305L615.5,158.5203421272305L611,154.0203421272305Z" stroke="none" stroke-width="0" fill="#66aa00"></path><path d="M398.0333333333333,151.1993310730701L402.5333333333333,155.6993310730701L398.0333333333333,160.1993310730701L393.5333333333333,155.6993310730701Z" stroke="none" stroke-width="0" fill="#66aa00"></path><path d="M366.9666666666667,162.48373860861065L371.4666666666667,166.98373860861065L366.9666666666667,171.48373860861065L362.4666666666667,166.98373860861065Z" stroke="none" stroke-width="0" fill="#66aa00"></path><path d="M335.9,153.40639195500697L340.4,157.90639195500697L335.9,162.40639195500697L331.4,157.90639195500697Z" stroke="none" stroke-width="0" fill="#66aa00"></path><path d="M304.8333333333333,164.9028273465569L309.3333333333333,169.4028273465569L304.8333333333333,173.9028273465569L300.3333333333333,169.4028273465569Z" stroke="none" stroke-width="0" fill="#66aa00"></path><path d="M273.76666666666665,172.78476032461245L278.26666666666665,177.28476032461245L273.76666666666665,181.78476032461245L269.26666666666665,177.28476032461245Z" stroke="none" stroke-width="0" fill="#66aa00"></path><path d="M242.70000000000005,180.89975750285166L247.20000000000005,185.39975750285166L242.70000000000005,189.89975750285166L238.20000000000005,185.39975750285166Z" stroke="none" stroke-width="0" fill="#66aa00"></path><path d="M211.63333333333338,217.84139713419268L216.13333333333338,222.34139713419268L211.63333333333338,226.84139713419268L207.13333333333338,222.34139713419268Z" stroke="none" stroke-width="0" fill="#66aa00"></path><path d="M180.56666666666666,231.30838319462782L185.06666666666666,235.80838319462782L180.56666666666666,240.30838319462782L176.06666666666666,235.80838319462782Z" stroke="none" stroke-width="0" fill="#66aa00"></path><path d="M149.5,318.27582696472905L154,322.77582696472905L149.5,327.27582696472905L145,322.77582696472905Z" stroke="none" stroke-width="0" fill="#66aa00"></path></g><g><g><text text-anchor="middle" x="161.62716926082965" y="400.9" font-family="Arial" font-size="14" stroke="none" stroke-width="0" fill="#444444">100000</text></g><g><text text-anchor="middle" x="264.8284020753304" y="400.9" font-family="Arial" font-size="14" stroke="none" stroke-width="0" fill="#444444">10000</text></g><g><text text-anchor="middle" x="368.02963488983113" y="400.9" font-family="Arial" font-size="14" stroke="none" stroke-width="0" fill="#444444">1000</text></g><g><text text-anchor="middle" x="471.23086770433184" y="400.9" font-family="Arial" font-size="14" stroke="none" stroke-width="0" fill="#444444">100</text></g><g><text text-anchor="middle" x="574.4321005188326" y="400.9" font-family="Arial" font-size="14" stroke="none" stroke-width="0" fill="#444444">10</text></g><g><text text-anchor="end" x="135" y="384.4" font-family="Arial" font-size="14" stroke="none" stroke-width="0" fill="#444444">0</text></g><g><text text-anchor="end" x="135" y="312.15" font-family="Arial" font-size="14" stroke="none" stroke-width="0" fill="#444444">600</text></g><g><text text-anchor="end" x="135" y="239.9" font-family="Arial" font-size="14" stroke="none" stroke-width="0" fill="#444444">1200</text></g><g><text text-anchor="end" x="135" y="167.65" font-family="Arial" font-size="14" stroke="none" stroke-width="0" fill="#444444">1800</text></g><g><text text-anchor="end" x="135" y="95.4" font-family="Arial" font-size="14" stroke="none" stroke-width="0" fill="#444444">2400</text></g></g></g><g><g><text text-anchor="middle" x="382.5" y="441.4" font-family="Arial" font-size="14" font-style="italic" stroke="none" stroke-width="0" fill="#222222">Response Size (B)</text><rect x="149" y="429.5" width="467" height="14" stroke="none" stroke-width="0" fill-opacity="0" fill="#ffffff"></rect></g><g><text text-anchor="middle" x="56.9" y="235" font-family="Arial" font-size="14" font-style="italic" transform="rotate(-90 56.9 235)" stroke="none" stroke-width="0" fill="#222222">Requests Per Second</text><path d="M44.99999999999999,380L45.00000000000001,90L59.00000000000001,90L58.99999999999999,380Z" stroke="none" stroke-width="0" fill-opacity="0" fill="#ffffff"></path></g></g><g></g></svg>