<?xml version="1.0" standalone="yes"?>
<!DOCTYPE svg PUBLIC "-//W3C//DTD SVG 1.1//EN"
    "http://www.w3.org/Graphics/SVG/1.1/DTD/svg11.dtd">
<svg xmlns="http://www.w3.org/2000/svg" width="1031" height="550" aria-label="A chart." style="overflow: hidden;"><defs id="defs"><clipPath id="_ABSTRACT_RENDERER_ID_7"><rect x="179" y="30" width="642" height="415"></rect></clipPath></defs><rect x="0" y="0" width="1031" height="550" stroke="none" stroke-width="0" fill="#ffffff"></rect><g><text text-anchor="start" x="179" y="20.6" font-family="Arial" font-size="16" font-weight="bold" stroke="none" stroke-width="0" fill="#000000">Server-to-Server Python Client Throughput vs Response Size</text><rect x="179" y="7" width="642" height="16" stroke="none" stroke-width="0" fill-opacity="0" fill="#ffffff"></rect></g><g><rect x="836" y="30" width="180" height="343" stroke="none" stroke-width="0" fill-opacity="0" fill="#ffffff"></rect><g><rect x="836" y="30" width="180" height="35" stroke="none" stroke-width="0" fill-opacity="0" fill="#ffffff"></rect><g><text text-anchor="start" x="872" y="42.75" font-family="Arial" font-size="15" stroke="none" stroke-width="0" fill="#222222">HTTP Requests (no</text><text text-anchor="start" x="872" y="62.75" font-family="Arial" font-size="15" stroke="none" stroke-width="0" fill="#222222">cnxn reuse)</text></g><path d="M836,37.5L866,37.5" stroke="#3366cc" stroke-width="1" fill-opacity="1" fill="none"></path><path d="M851,33L855.5,37.5L851,42L846.5,37.5Z" stroke="none" stroke-width="0" fill="#3366cc"></path></g><g><rect x="836" y="74" width="180" height="35" stroke="none" stroke-width="0" fill-opacity="0" fill="#ffffff"></rect><g><text text-anchor="start" x="872" y="86.75" font-family="Arial" font-size="15" stroke="none" stroke-width="0" fill="#222222">HTTP PyCurl (no</text><text text-anchor="start" x="872" y="106.75" font-family="Arial" font-size="15" stroke="none" stroke-width="0" fill="#222222">cnxn reuse)</text></g><path d="M836,81.5L866,81.5" stroke="#dc3912" stroke-width="1" fill-opacity="1" fill="none"></path><path d="M851,77L855.5,81.5L851,86L846.5,81.5Z" stroke="none" stroke-width="0" fill="#dc3912"></path></g><g><rect x="836" y="118" width="180" height="35" stroke="none" stroke-width="0" fill-opacity="0" fill="#ffffff"></rect><g><text text-anchor="start" x="872" y="130.75" font-family="Arial" font-size="15" stroke="none" stroke-width="0" fill="#222222">HTTP Requests</text><text text-anchor="start" x="872" y="150.75" font-family="Arial" font-size="15" stroke="none" stroke-width="0" fill="#222222">(cnxn reuse)</text></g><path d="M836,125.5L866,125.5" stroke="#ff9900" stroke-width="1" fill-opacity="1" fill="none"></path><path d="M851,121L855.5,125.5L851,130L846.5,125.5Z" stroke="none" stroke-width="0" fill="#ff9900"></path></g><g><rect x="836" y="162" width="180" height="35" stroke="none" stroke-width="0" fill-opacity="0" fill="#ffffff"></rect><g><text text-anchor="start" x="872" y="174.75" font-family="Arial" font-size="15" stroke="none" stroke-width="0" fill="#222222">HTTP PyCurl (cnxn</text><text text-anchor="start" x="872" y="194.75" font-family="Arial" font-size="15" stroke="none" stroke-width="0" fill="#222222">Reuse)</text></g><path d="M836,169.5L866,169.5" stroke="#109618" stroke-width="1" fill-opacity="1" fill="none"></path><path d="M851,165L855.5,169.5L851,174L846.5,169.5Z" stroke="none" stroke-width="0" fill="#109618"></path></g><g><rect x="836" y="206" width="180" height="35" stroke="none" stroke-width="0" fill-opacity="0" fill="#ffffff"></rect><g><text text-anchor="start" x="872" y="218.75" font-family="Arial" font-size="15" stroke="none" stroke-width="0" fill="#222222">HTTPS Requests (no</text><text text-anchor="start" x="872" y="238.75" font-family="Arial" font-size="15" stroke="none" stroke-width="0" fill="#222222">cnxn reuse)</text></g><path d="M836,213.5L866,213.5" stroke="#990099" stroke-width="1" fill-opacity="1" fill="none"></path><path d="M851,209L855.5,213.5L851,218L846.5,213.5Z" stroke="none" stroke-width="0" fill="#990099"></path></g><g><rect x="836" y="250" width="180" height="35" stroke="none" stroke-width="0" fill-opacity="0" fill="#ffffff"></rect><g><text text-anchor="start" x="872" y="262.75" font-family="Arial" font-size="15" stroke="none" stroke-width="0" fill="#222222">HTTPS PyCurl (no</text><text text-anchor="start" x="872" y="282.75" font-family="Arial" font-size="15" stroke="none" stroke-width="0" fill="#222222">cnxn reuse)</text></g><path d="M836,257.5L866,257.5" stroke="#0099c6" stroke-width="1" fill-opacity="1" fill="none"></path><path d="M851,253L855.5,257.5L851,262L846.5,257.5Z" stroke="none" stroke-width="0" fill="#0099c6"></path></g><g><rect x="836" y="294" width="180" height="35" stroke="none" stroke-width="0" fill-opacity="0" fill="#ffffff"></rect><g><text text-anchor="start" x="872" y="306.75" font-family="Arial" font-size="15" stroke="none" stroke-width="0" fill="#222222">HTTPS Requests</text><text text-anchor="start" x="872" y="326.75" font-family="Arial" font-size="15" stroke="none" stroke-width="0" fill="#222222">(cnxn reuse)</text></g><path d="M836,301.5L866,301.5" stroke="#dd4477" stroke-width="1" fill-opacity="1" fill="none"></path><path d="M851,297L855.5,301.5L851,306L846.5,301.5Z" stroke="none" stroke-width="0" fill="#dd4477"></path></g><g><rect x="836" y="338" width="180" height="35" stroke="none" stroke-width="0" fill-opacity="0" fill="#ffffff"></rect><g><text text-anchor="start" x="872" y="350.75" font-family="Arial" font-size="15" stroke="none" stroke-width="0" fill="#222222">HTTPS PyCurl (cnxn</text><text text-anchor="start" x="872" y="370.75" font-family="Arial" font-size="15" stroke="none" stroke-width="0" fill="#222222">Reuse)</text></g><path d="M836,345.5L866,345.5" stroke="#66aa00" stroke-width="1" fill-opacity="1" fill="none"></path><path d="M851,341L855.5,345.5L851,350L846.5,345.5Z" stroke="none" stroke-width="0" fill="#66aa00"></path></g></g><g><rect x="179" y="30" width="642" height="415" stroke="none" stroke-width="0" fill-opacity="0" fill="#ffffff"></rect><g clip-path="url(https://docs.google.com/spreadsheets/d/1jxXZb1VfytzJKM9_hZOWxKgiWv21bs1XBLgeHyckO_0/edit#_ABSTRACT_RENDERER_ID_7)"><g><rect x="764" y="30" width="1" height="415" stroke="none" stroke-width="0" fill="#cccccc"></rect><rect x="622" y="30" width="1" height="415" stroke="none" stroke-width="0" fill="#cccccc"></rect><rect x="480" y="30" width="1" height="415" stroke="none" stroke-width="0" fill="#cccccc"></rect><rect x="338" y="30" width="1" height="415" stroke="none" stroke-width="0" fill="#cccccc"></rect><rect x="196" y="30" width="1" height="415" stroke="none" stroke-width="0" fill="#cccccc"></rect><rect x="179" y="406" width="642" height="1" stroke="none" stroke-width="0" fill="#cccccc"></rect><rect x="179" y="331" width="642" height="1" stroke="none" stroke-width="0" fill="#cccccc"></rect><rect x="179" y="256" width="642" height="1" stroke="none" stroke-width="0" fill="#cccccc"></rect><rect x="179" y="181" width="642" height="1" stroke="none" stroke-width="0" fill="#cccccc"></rect><rect x="179" y="105" width="642" height="1" stroke="none" stroke-width="0" fill="#cccccc"></rect><rect x="179" y="30" width="642" height="1" stroke="none" stroke-width="0" fill="#cccccc"></rect></g><g><path d="M820.5,376.17024181689885C820.5,376.17024181689885,535.6111111111111,227.52442651860878,521.3666666666667,220.07003177903954C507.1222222222222,212.61563703947027,492.87777777777774,204.92973471668583,478.6333333333333,197.64369334703244C464.38888888888886,190.35765197737905,450.1444444444444,183.63994089387876,435.9,176.3537835611191C421.6555555555555,169.06762622835947,407.41111111111115,161.14624972649779,393.16666666666663,153.9267493504746C378.9222222222223,146.70724897445143,364.6777777777778,139.8140982083603,350.43333333333334,133.03678130498002C336.1888888888889,126.25946440159981,321.94444444444446,119.3056200442511,307.70000000000005,113.26284793019312C293.45555555555575,107.22007581613519,279.2111111111112,101.62518659543309,264.9666666666667,96.78014862063236C250.72222222222229,91.93511064583157,236.47777777777787,87.35856049240454,222.23333333333335,84.19262008138861C207.98888888888894,81.02667967037269,179.5,77.7845061545367,179.5,77.7845061545367" stroke="#3366cc" stroke-width="1" fill-opacity="1" fill="none"></path><path d="M820.5,348.2931649114777C820.5,348.2931649114777,535.6111111111111,198.04813913943443,521.3666666666667,190.50152848842575C507.1222222222222,182.9549178374171,492.87777777777774,175.35130522085808,478.6333333333333,167.76352692852402C464.38888888888886,160.17574863619,450.1444444444444,152.4493083068461,435.9,144.97485873442156C421.6555555555555,137.50040916199697,407.41111111111115,130.20866805242406,393.16666666666663,122.9168294939767C378.9222222222223,115.62499093552935,364.6777777777778,108.47134388883342,350.43333333333334,101.22382738373722C336.1888888888889,93.97631087864113,321.94444444444446,85.91290419917084,307.70000000000005,79.43173046339979C293.45555555555575,72.95055672762862,279.2111111111112,68.54240880387766,264.9666666666667,62.33678496911085C250.72222222222229,56.131161134343984,236.47777777777787,45.28077428828618,222.23333333333335,42.19798745479892C207.98888888888894,39.1152006213116,179.5,43.84006396818711,179.5,43.84006396818711" stroke="#dc3912" stroke-width="1" fill-opacity="1" fill="none"></path><path d="M820.5,358.8938638734652C820.5,358.8938638734652,535.6111111111111,206.64741177235464,521.3666666666667,199.1410697367665C507.1222222222222,191.63472770117832,492.87777777777774,184.21747281310752,478.6333333333333,176.92484525705152C464.38888888888886,169.63221770099557,450.1444444444444,162.69337554396486,435.9,155.38530440043058C421.6555555555555,148.07723325689636,407.41111111111115,140.30470816961144,393.16666666666663,133.07641839584608C378.9222222222223,125.8481286220806,364.6777777777778,119.0230337071801,350.43333333333334,112.01556575783815C336.1888888888889,105.00809780849613,321.94444444444446,98.23380748841714,307.70000000000005,91.03161069979393C293.45555555555575,83.82941391117072,279.2111111111112,75.8988810973184,264.9666666666667,68.8023850260987C250.72222222222229,61.70588895487896,236.47777777777787,51.95917890074935,222.23333333333335,48.452634272475905C207.98888888888894,44.9460896442024,179.5,47.76311725645792,179.5,47.76311725645792" stroke="#ff9900" stroke-width="1" fill-opacity="1" fill="none"></path><path d="M820.5,336.89326283326284C820.5,336.89326283326284,535.6111111111111,186.42953095325123,521.3666666666667,178.8681963569278C507.1222222222222,171.30686176060436,492.87777777777774,163.5856054186566,478.6333333333333,156.07519827560657C464.38888888888886,148.56479113255648,450.1444444444444,141.1103002980832,435.9,133.8057534986275C421.6555555555555,126.50120669917175,407.41111111111115,119.34059228706855,393.16666666666663,112.24791747887213C378.9222222222223,105.1552426706757,364.6777777777778,97.82762540124588,350.43333333333334,91.2497046494488C336.1888888888889,84.67178389765184,321.94444444444446,78.76892118370716,307.70000000000005,72.78039296808981C293.45555555555575,66.79186475247252,279.2111111111112,59.97308577043782,264.9666666666667,55.318535355744984C250.72222222222229,50.663984941052036,236.47777777777787,46.112329465101595,222.23333333333335,44.85309047993252C207.98888888888894,43.5938514947635,179.5,47.76310144473092,179.5,47.76310144473092" stroke="#109618" stroke-width="1" fill-opacity="1" fill="none"></path><path d="M820.5,424.92311152300636C820.5,424.92311152300636,535.6111111111111,274.1271900185145,521.3666666666667,266.5795937349127C507.1222222222222,259.0319974513108,492.87777777777774,251.390165867861,478.6333333333333,243.9145185744577C464.38888888888886,236.43887128105442,450.1444444444444,229.21261283810796,435.9,221.72570997449293C421.6555555555555,214.23880711087787,407.41111111111115,206.4709425734708,393.16666666666663,198.99310139276733C378.9222222222223,191.51526021206388,364.6777777777778,184.15584042871188,350.43333333333334,176.85866289027211C336.1888888888889,169.5614853518323,321.94444444444446,162.28979404534385,307.70000000000005,155.21003616212852C293.45555555555575,148.13027827891318,279.2111111111112,141.042283411396,264.9666666666667,134.38011559098004C250.72222222222229,127.71794777056402,236.47777777777787,120.95396918626398,222.23333333333335,115.23702923963248C207.98888888888894,109.52008929300104,179.5,100.07847591119105,179.5,100.07847591119105" stroke="#990099" stroke-width="1" fill-opacity="1" fill="none"></path><path d="M820.5,416.9047976410542C820.5,416.9047976410542,535.6111111111111,265.8654608816246,521.3666666666667,258.3526804813919C507.1222222222222,250.8399000811592,492.87777777777774,243.4281190133583,478.6333333333333,235.92630053137594C464.38888888888886,228.42448204939353,450.1444444444444,220.9014592522209,435.9,213.34176958949772C421.6555555555555,205.78207992677454,407.41111111111115,198.0949345083702,393.16666666666663,190.56816255503688C378.9222222222223,183.04139060170354,364.6777777777778,175.6846649492498,350.43333333333334,168.18113786949772C336.1888888888889,160.67761078974564,321.94444444444446,152.9749543560369,307.70000000000005,145.5470000765244C293.45555555555575,138.11904579701195,279.2111111111112,130.94969629726046,264.9666666666667,123.6134121924228C250.72222222222229,116.27712808758514,236.47777777777787,108.82101449678248,222.23333333333335,101.52929544749855C207.98888888888894,94.23757639821457,179.5,79.86309789671918,179.5,79.86309789671918" stroke="#0099c6" stroke-width="1" fill-opacity="1" fill="none"></path><path d="M820.5,361.03283811834115C820.5,361.03283811834115,535.6111111111111,211.13576619621253,521.3666666666667,203.738986781316C507.1222222222222,196.3422073664195,492.87777777777774,189.18684810895843,478.6333333333333,181.8288604829405C464.38888888888886,174.4708728569227,450.1444444444444,167.20907144277209,435.9,159.59106102520877C421.6555555555555,151.97305060764558,407.41111111111115,143.71818075423386,393.16666666666663,136.12079797756093C378.9222222222223,128.52341520088794,364.6777777777778,120.99963967991056,350.43333333333334,114.00676436517102C336.1888888888889,107.01388905043149,321.94444444444446,101.05252673093321,307.70000000000005,94.16354608912354C293.45555555555575,87.27456544731393,279.2111111111112,79.40020373248916,264.9666666666667,72.67288051431314C250.72222222222229,65.94555729613711,236.47777777777787,58.59542430947704,222.23333333333335,53.79960678006762C207.98888888888894,49.003789250658315,179.5,43.897975337856906,179.5,43.897975337856906" stroke="#dd4477" stroke-width="1" fill-opacity="1" fill="none"></path><path d="M820.5,342.5896964182913C820.5,342.5896964182913,535.6111111111111,191.4840016689641,521.3666666666667,184.21858939006097C507.1222222222222,176.9531771111578,492.87777777777774,170.74967829627775,478.6333333333333,163.25055957781785C464.38888888888886,155.751440859358,450.1444444444444,146.7146178465445,435.9,139.22387707930176C421.6555555555555,131.733136312059,407.41111111111115,125.36063288417944,393.16666666666663,118.30611497436115C378.9222222222223,111.25159706454286,364.6777777777778,104.01839588029861,350.43333333333334,96.89676962039186C336.1888888888889,89.77514336048506,321.94444444444446,81.75605096046615,307.70000000000005,75.5763574149205C293.45555555555575,69.39666386937478,279.2111111111112,65.73335540016575,264.9666666666667,59.81860834711762C250.72222222222229,53.9038612940696,236.47777777777787,42.088749707167096,222.23333333333335,40.087875096632274C207.98888888888894,38.08700048609734,179.5,47.81336068390857,179.5,47.81336068390857" stroke="#66aa00" stroke-width="1" fill-opacity="1" fill="none"></path></g></g><g><path d="M820.5,371.67024181689885L825,376.17024181689885L820.5,380.67024181689885L816,376.17024181689885Z" stroke="none" stroke-width="0" fill="#3366cc"></path><path d="M521.3666666666667,215.57003177903954L525.8666666666667,220.07003177903954L521.3666666666667,224.57003177903954L516.8666666666667,220.07003177903954Z" stroke="none" stroke-width="0" fill="#3366cc"></path><path d="M478.6333333333333,193.14369334703244L483.1333333333333,197.64369334703244L478.6333333333333,202.14369334703244L474.1333333333333,197.64369334703244Z" stroke="none" stroke-width="0" fill="#3366cc"></path><path d="M435.9,171.8537835611191L440.4,176.3537835611191L435.9,180.8537835611191L431.4,176.3537835611191Z" stroke="none" stroke-width="0" fill="#3366cc"></path><path d="M393.16666666666663,149.4267493504746L397.66666666666663,153.9267493504746L393.16666666666663,158.4267493504746L388.66666666666663,153.9267493504746Z" stroke="none" stroke-width="0" fill="#3366cc"></path><path d="M350.43333333333334,128.53678130498002L354.93333333333334,133.03678130498002L350.43333333333334,137.53678130498002L345.93333333333334,133.03678130498002Z" stroke="none" stroke-width="0" fill="#3366cc"></path><path d="M307.70000000000005,108.76284793019312L312.20000000000005,113.26284793019312L307.70000000000005,117.76284793019312L303.20000000000005,113.26284793019312Z" stroke="none" stroke-width="0" fill="#3366cc"></path><path d="M264.9666666666667,92.28014862063236L269.4666666666667,96.78014862063236L264.9666666666667,101.28014862063236L260.4666666666667,96.78014862063236Z" stroke="none" stroke-width="0" fill="#3366cc"></path><path d="M222.23333333333335,79.69262008138861L226.73333333333335,84.19262008138861L222.23333333333335,88.69262008138861L217.73333333333335,84.19262008138861Z" stroke="none" stroke-width="0" fill="#3366cc"></path><path d="M179.5,73.2845061545367L184,77.7845061545367L179.5,82.2845061545367L175,77.7845061545367Z" stroke="none" stroke-width="0" fill="#3366cc"></path><path d="M820.5,343.7931649114777L825,348.2931649114777L820.5,352.7931649114777L816,348.2931649114777Z" stroke="none" stroke-width="0" fill="#dc3912"></path><path d="M521.3666666666667,186.00152848842575L525.8666666666667,190.50152848842575L521.3666666666667,195.00152848842575L516.8666666666667,190.50152848842575Z" stroke="none" stroke-width="0" fill="#dc3912"></path><path d="M478.6333333333333,163.26352692852402L483.1333333333333,167.76352692852402L478.6333333333333,172.26352692852402L474.1333333333333,167.76352692852402Z" stroke="none" stroke-width="0" fill="#dc3912"></path><path d="M435.9,140.47485873442156L440.4,144.97485873442156L435.9,149.47485873442156L431.4,144.97485873442156Z" stroke="none" stroke-width="0" fill="#dc3912"></path><path d="M393.16666666666663,118.4168294939767L397.66666666666663,122.9168294939767L393.16666666666663,127.4168294939767L388.66666666666663,122.9168294939767Z" stroke="none" stroke-width="0" fill="#dc3912"></path><path d="M350.43333333333334,96.72382738373722L354.93333333333334,101.22382738373722L350.43333333333334,105.72382738373722L345.93333333333334,101.22382738373722Z" stroke="none" stroke-width="0" fill="#dc3912"></path><path d="M307.70000000000005,74.93173046339979L312.20000000000005,79.43173046339979L307.70000000000005,83.93173046339979L303.20000000000005,79.43173046339979Z" stroke="none" stroke-width="0" fill="#dc3912"></path><path d="M264.9666666666667,57.83678496911085L269.4666666666667,62.33678496911085L264.9666666666667,66.83678496911085L260.4666666666667,62.33678496911085Z" stroke="none" stroke-width="0" fill="#dc3912"></path><path d="M222.23333333333335,37.69798745479892L226.73333333333335,42.19798745479892L222.23333333333335,46.69798745479892L217.73333333333335,42.19798745479892Z" stroke="none" stroke-width="0" fill="#dc3912"></path><path d="M179.5,39.34006396818711L184,43.84006396818711L179.5,48.34006396818711L175,43.84006396818711Z" stroke="none" stroke-width="0" fill="#dc3912"></path><path d="M820.5,354.3938638734652L825,358.8938638734652L820.5,363.3938638734652L816,358.8938638734652Z" stroke="none" stroke-width="0" fill="#ff9900"></path><path d="M521.3666666666667,194.6410697367665L525.8666666666667,199.1410697367665L521.3666666666667,203.6410697367665L516.8666666666667,199.1410697367665Z" stroke="none" stroke-width="0" fill="#ff9900"></path><path d="M478.6333333333333,172.42484525705152L483.1333333333333,176.92484525705152L478.6333333333333,181.42484525705152L474.1333333333333,176.92484525705152Z" stroke="none" stroke-width="0" fill="#ff9900"></path><path d="M435.9,150.88530440043058L440.4,155.38530440043058L435.9,159.88530440043058L431.4,155.38530440043058Z" stroke="none" stroke-width="0" fill="#ff9900"></path><path d="M393.16666666666663,128.57641839584608L397.66666666666663,133.07641839584608L393.16666666666663,137.57641839584608L388.66666666666663,133.07641839584608Z" stroke="none" stroke-width="0" fill="#ff9900"></path><path d="M350.43333333333334,107.51556575783815L354.93333333333334,112.01556575783815L350.43333333333334,116.51556575783815L345.93333333333334,112.01556575783815Z" stroke="none" stroke-width="0" fill="#ff9900"></path><path d="M307.70000000000005,86.53161069979393L312.20000000000005,91.03161069979393L307.70000000000005,95.53161069979393L303.20000000000005,91.03161069979393Z" stroke="none" stroke-width="0" fill="#ff9900"></path><path d="M264.9666666666667,64.3023850260987L269.4666666666667,68.8023850260987L264.9666666666667,73.3023850260987L260.4666666666667,68.8023850260987Z" stroke="none" stroke-width="0" fill="#ff9900"></path><path d="M222.23333333333335,43.952634272475905L226.73333333333335,48.452634272475905L222.23333333333335,52.952634272475905L217.73333333333335,48.452634272475905Z" stroke="none" stroke-width="0" fill="#ff9900"></path><path d="M179.5,43.26311725645792L184,47.76311725645792L179.5,52.26311725645792L175,47.76311725645792Z" stroke="none" stroke-width="0" fill="#ff9900"></path><path d="M820.5,332.39326283326284L825,336.89326283326284L820.5,341.39326283326284L816,336.89326283326284Z" stroke="none" stroke-width="0" fill="#109618"></path><path d="M521.3666666666667,174.3681963569278L525.8666666666667,178.8681963569278L521.3666666666667,183.3681963569278L516.8666666666667,178.8681963569278Z" stroke="none" stroke-width="0" fill="#109618"></path><path d="M478.6333333333333,151.57519827560657L483.1333333333333,156.07519827560657L478.6333333333333,160.57519827560657L474.1333333333333,156.07519827560657Z" stroke="none" stroke-width="0" fill="#109618"></path><path d="M435.9,129.3057534986275L440.4,133.8057534986275L435.9,138.3057534986275L431.4,133.8057534986275Z" stroke="none" stroke-width="0" fill="#109618"></path><path d="M393.16666666666663,107.74791747887213L397.66666666666663,112.24791747887213L393.16666666666663,116.74791747887213L388.66666666666663,112.24791747887213Z" stroke="none" stroke-width="0" fill="#109618"></path><path d="M350.43333333333334,86.7497046494488L354.93333333333334,91.2497046494488L350.43333333333334,95.7497046494488L345.93333333333334,91.2497046494488Z" stroke="none" stroke-width="0" fill="#109618"></path><path d="M307.70000000000005,68.28039296808981L312.20000000000005,72.78039296808981L307.70000000000005,77.28039296808981L303.20000000000005,72.78039296808981Z" stroke="none" stroke-width="0" fill="#109618"></path><path d="M264.9666666666667,50.818535355744984L269.4666666666667,55.318535355744984L264.9666666666667,59.818535355744984L260.4666666666667,55.318535355744984Z" stroke="none" stroke-width="0" fill="#109618"></path><path d="M222.23333333333335,40.35309047993252L226.73333333333335,44.85309047993252L222.23333333333335,49.35309047993252L217.73333333333335,44.85309047993252Z" stroke="none" stroke-width="0" fill="#109618"></path><path d="M179.5,43.26310144473092L184,47.76310144473092L179.5,52.26310144473092L175,47.76310144473092Z" stroke="none" stroke-width="0" fill="#109618"></path><path d="M820.5,420.42311152300636L825,424.92311152300636L820.5,429.42311152300636L816,424.92311152300636Z" stroke="none" stroke-width="0" fill="#990099"></path><path d="M521.3666666666667,262.0795937349127L525.8666666666667,266.5795937349127L521.3666666666667,271.0795937349127L516.8666666666667,266.5795937349127Z" stroke="none" stroke-width="0" fill="#990099"></path><path d="M478.6333333333333,239.4145185744577L483.1333333333333,243.9145185744577L478.6333333333333,248.4145185744577L474.1333333333333,243.9145185744577Z" stroke="none" stroke-width="0" fill="#990099"></path><path d="M435.9,217.22570997449293L440.4,221.72570997449293L435.9,226.22570997449293L431.4,221.72570997449293Z" stroke="none" stroke-width="0" fill="#990099"></path><path d="M393.16666666666663,194.49310139276733L397.66666666666663,198.99310139276733L393.16666666666663,203.49310139276733L388.66666666666663,198.99310139276733Z" stroke="none" stroke-width="0" fill="#990099"></path><path d="M350.43333333333334,172.35866289027211L354.93333333333334,176.85866289027211L350.43333333333334,181.35866289027211L345.93333333333334,176.85866289027211Z" stroke="none" stroke-width="0" fill="#990099"></path><path d="M307.70000000000005,150.71003616212852L312.20000000000005,155.21003616212852L307.70000000000005,159.71003616212852L303.20000000000005,155.21003616212852Z" stroke="none" stroke-width="0" fill="#990099"></path><path d="M264.9666666666667,129.88011559098004L269.4666666666667,134.38011559098004L264.9666666666667,138.88011559098004L260.4666666666667,134.38011559098004Z" stroke="none" stroke-width="0" fill="#990099"></path><path d="M222.23333333333335,110.73702923963248L226.73333333333335,115.23702923963248L222.23333333333335,119.73702923963248L217.73333333333335,115.23702923963248Z" stroke="none" stroke-width="0" fill="#990099"></path><path d="M179.5,95.57847591119105L184,100.07847591119105L179.5,104.57847591119105L175,100.07847591119105Z" stroke="none" stroke-width="0" fill="#990099"></path><path d="M820.5,412.4047976410542L825,416.9047976410542L820.5,421.4047976410542L816,416.9047976410542Z" stroke="none" stroke-width="0" fill="#0099c6"></path><path d="M521.3666666666667,253.85268048139187L525.8666666666667,258.3526804813919L521.3666666666667,262.8526804813919L516.8666666666667,258.3526804813919Z" stroke="none" stroke-width="0" fill="#0099c6"></path><path d="M478.6333333333333,231.42630053137594L483.1333333333333,235.92630053137594L478.6333333333333,240.42630053137594L474.1333333333333,235.92630053137594Z" stroke="none" stroke-width="0" fill="#0099c6"></path><path d="M435.9,208.84176958949772L440.4,213.34176958949772L435.9,217.84176958949772L431.4,213.34176958949772Z" stroke="none" stroke-width="0" fill="#0099c6"></path><path d="M393.16666666666663,186.06816255503688L397.66666666666663,190.56816255503688L393.16666666666663,195.06816255503688L388.66666666666663,190.56816255503688Z" stroke="none" stroke-width="0" fill="#0099c6"></path><path d="M350.43333333333334,163.68113786949772L354.93333333333334,168.18113786949772L350.43333333333334,172.68113786949772L345.93333333333334,168.18113786949772Z" stroke="none" stroke-width="0" fill="#0099c6"></path><path d="M307.70000000000005,141.0470000765244L312.20000000000005,145.5470000765244L307.70000000000005,150.0470000765244L303.20000000000005,145.5470000765244Z" stroke="none" stroke-width="0" fill="#0099c6"></path><path d="M264.9666666666667,119.1134121924228L269.4666666666667,123.6134121924228L264.9666666666667,128.1134121924228L260.4666666666667,123.6134121924228Z" stroke="none" stroke-width="0" fill="#0099c6"></path><path d="M222.23333333333335,97.02929544749855L226.73333333333335,101.52929544749855L222.23333333333335,106.02929544749855L217.73333333333335,101.52929544749855Z" stroke="none" stroke-width="0" fill="#0099c6"></path><path d="M179.5,75.36309789671918L184,79.86309789671918L179.5,84.36309789671918L175,79.86309789671918Z" stroke="none" stroke-width="0" fill="#0099c6"></path><path d="M820.5,356.53283811834115L825,361.03283811834115L820.5,365.53283811834115L816,361.03283811834115Z" stroke="none" stroke-width="0" fill="#dd4477"></path><path d="M521.3666666666667,199.238986781316L525.8666666666667,203.738986781316L521.3666666666667,208.238986781316L516.8666666666667,203.738986781316Z" stroke="none" stroke-width="0" fill="#dd4477"></path><path d="M478.6333333333333,177.3288604829405L483.1333333333333,181.8288604829405L478.6333333333333,186.3288604829405L474.1333333333333,181.8288604829405Z" stroke="none" stroke-width="0" fill="#dd4477"></path><path d="M435.9,155.09106102520877L440.4,159.59106102520877L435.9,164.09106102520877L431.4,159.59106102520877Z" stroke="none" stroke-width="0" fill="#dd4477"></path><path d="M393.16666666666663,131.62079797756093L397.66666666666663,136.12079797756093L393.16666666666663,140.62079797756093L388.66666666666663,136.12079797756093Z" stroke="none" stroke-width="0" fill="#dd4477"></path><path d="M350.43333333333334,109.50676436517102L354.93333333333334,114.00676436517102L350.43333333333334,118.50676436517102L345.93333333333334,114.00676436517102Z" stroke="none" stroke-width="0" fill="#dd4477"></path><path d="M307.70000000000005,89.66354608912354L312.20000000000005,94.16354608912354L307.70000000000005,98.66354608912354L303.20000000000005,94.16354608912354Z" stroke="none" stroke-width="0" fill="#dd4477"></path><path d="M264.9666666666667,68.17288051431314L269.4666666666667,72.67288051431314L264.9666666666667,77.17288051431314L260.4666666666667,72.67288051431314Z" stroke="none" stroke-width="0" fill="#dd4477"></path><path d="M222.23333333333335,49.29960678006762L226.73333333333335,53.79960678006762L222.23333333333335,58.29960678006762L217.73333333333335,53.79960678006762Z" stroke="none" stroke-width="0" fill="#dd4477"></path><path d="M179.5,39.397975337856906L184,43.897975337856906L179.5,48.397975337856906L175,43.897975337856906Z" stroke="none" stroke-width="0" fill="#dd4477"></path><path d="M820.5,338.0896964182913L825,342.5896964182913L820.5,347.0896964182913L816,342.5896964182913Z" stroke="none" stroke-width="0" fill="#66aa00"></path><path d="M521.3666666666667,179.71858939006097L525.8666666666667,184.21858939006097L521.3666666666667,188.71858939006097L516.8666666666667,184.21858939006097Z" stroke="none" stroke-width="0" fill="#66aa00"></path><path d="M478.6333333333333,158.75055957781785L483.1333333333333,163.25055957781785L478.6333333333333,167.75055957781785L474.1333333333333,163.25055957781785Z" stroke="none" stroke-width="0" fill="#66aa00"></path><path d="M435.9,134.72387707930176L440.4,139.22387707930176L435.9,143.72387707930176L431.4,139.22387707930176Z" stroke="none" stroke-width="0" fill="#66aa00"></path><path d="M393.16666666666663,113.80611497436115L397.66666666666663,118.30611497436115L393.16666666666663,122.80611497436115L388.66666666666663,118.30611497436115Z" stroke="none" stroke-width="0" fill="#66aa00"></path><path d="M350.43333333333334,92.39676962039186L354.93333333333334,96.89676962039186L350.43333333333334,101.39676962039186L345.93333333333334,96.89676962039186Z" stroke="none" stroke-width="0" fill="#66aa00"></path><path d="M307.70000000000005,71.0763574149205L312.20000000000005,75.5763574149205L307.70000000000005,80.0763574149205L303.20000000000005,75.5763574149205Z" stroke="none" stroke-width="0" fill="#66aa00"></path><path d="M264.9666666666667,55.31860834711762L269.4666666666667,59.81860834711762L264.9666666666667,64.31860834711762L260.4666666666667,59.81860834711762Z" stroke="none" stroke-width="0" fill="#66aa00"></path><path d="M222.23333333333335,35.587875096632274L226.73333333333335,40.087875096632274L222.23333333333335,44.587875096632274L217.73333333333335,40.087875096632274Z" stroke="none" stroke-width="0" fill="#66aa00"></path><path d="M179.5,43.31336068390857L184,47.81336068390857L179.5,52.31336068390857L175,47.81336068390857Z" stroke="none" stroke-width="0" fill="#66aa00"></path></g><g><g><text text-anchor="middle" x="196.1813637257335" y="466.75" font-family="Arial" font-size="15" stroke="none" stroke-width="0" fill="#444444">100000</text></g><g><text text-anchor="middle" x="338.13842431392015" y="466.75" font-family="Arial" font-size="15" stroke="none" stroke-width="0" fill="#444444">10000</text></g><g><text text-anchor="middle" x="480.09548490210676" y="466.75" font-family="Arial" font-size="15" stroke="none" stroke-width="0" fill="#444444">1000</text></g><g><text text-anchor="middle" x="622.0525454902934" y="466.75" font-family="Arial" font-size="15" stroke="none" stroke-width="0" fill="#444444">100</text></g><g><text text-anchor="middle" x="764.00960607848" y="466.75" font-family="Arial" font-size="15" stroke="none" stroke-width="0" fill="#444444">10</text></g><g><text text-anchor="end" x="164" y="412.1136363636363" font-family="Arial" font-size="15" stroke="none" stroke-width="0" fill="#444444">0</text></g><g><text text-anchor="end" x="164" y="336.84090909090907" font-family="Arial" font-size="15" stroke="none" stroke-width="0" fill="#444444">0.01</text></g><g><text text-anchor="end" x="164" y="261.56818181818187" font-family="Arial" font-size="15" stroke="none" stroke-width="0" fill="#444444">0.1</text></g><g><text text-anchor="end" x="164" y="186.29545454545456" font-family="Arial" font-size="15" stroke="none" stroke-width="0" fill="#444444">1</text></g><g><text text-anchor="end" x="164" y="111.02272727272731" font-family="Arial" font-size="15" stroke="none" stroke-width="0" fill="#444444">10</text></g><g><text text-anchor="end" x="164" y="35.75000000000006" font-family="Arial" font-size="15" stroke="none" stroke-width="0" fill="#444444">100</text></g></g></g><g><g><text text-anchor="middle" x="500" y="514.75" font-family="Arial" font-size="15" font-style="italic" stroke="none" stroke-width="0" fill="#222222">Response Size (B)</text><rect x="179" y="502" width="642" height="15" stroke="none" stroke-width="0" fill-opacity="0" fill="#ffffff"></rect></g><g><text text-anchor="middle" x="72.75" y="237.5" font-family="Arial" font-size="15" font-style="italic" transform="rotate(-90 72.75 237.5)" stroke="none" stroke-width="0" fill="#222222">Throughput (MB/S)</text><path d="M59.999999999999986,445L60.000000000000014,30.000000000000004L75.00000000000001,30.000000000000004L74.99999999999999,445Z" stroke="none" stroke-width="0" fill-opacity="0" fill="#ffffff"></path></g></g><g></g></svg>